<?xml version="1.0" encoding="UTF-8" standalone="no"?>
<!DOCTYPE svg PUBLIC "-//W3C//DTD SVG 1.1//EN"
 "http://www.w3.org/Graphics/SVG/1.1/DTD/svg11.dtd">
<!-- Generated by graphviz version 2.43.0 (0)
 -->
<!-- Title: G Pages: 1 -->
<svg width="278pt" height="112pt"
 viewBox="0.00 0.00 278.00 112.00" xmlns="http://www.w3.org/2000/svg" xmlns:xlink="http://www.w3.org/1999/xlink">
<g id="graph0" class="graph" transform="scale(1 1) rotate(0) translate(4 108)">
<title>G</title>
<polygon fill="white" stroke="transparent" points="-4,4 -4,-108 274,-108 274,4 -4,4"/>
<!-- A -->
<g id="node1" class="node">
<title>A</title>
<ellipse fill="none" stroke="black" cx="27" cy="-35" rx="27" ry="18"/>
<text text-anchor="middle" x="27" y="-31.3" font-family="Times,serif" font-size="14.00">A</text>
</g>
<!-- B -->
<g id="node2" class="node">
<title>B</title>
<ellipse fill="none" stroke="black" cx="135" cy="-53" rx="27" ry="18"/>
<text text-anchor="middle" x="135" y="-49.3" font-family="Times,serif" font-size="14.00">B</text>
</g>
<!-- A&#45;&gt;B -->
<g id="edge1" class="edge">
<title>A&#45;&gt;B</title>
<path fill="none" stroke="black" d="M50,-44.54C56.91,-47.12 64.66,-49.58 72,-51 80.27,-52.59 89.27,-53.4 97.79,-53.75"/>
<polygon fill="black" stroke="black" points="97.78,-57.25 107.85,-53.98 97.94,-50.26 97.78,-57.25"/>
<text text-anchor="middle" x="81" y="-56.8" font-family="Times,serif" font-size="14.00">0.4</text>
</g>
<!-- C -->
<g id="node3" class="node">
<title>C</title>
<ellipse fill="none" stroke="black" cx="243" cy="-18" rx="27" ry="18"/>
<text text-anchor="middle" x="243" y="-14.3" font-family="Times,serif" font-size="14.00">C</text>
</g>
<!-- A&#45;&gt;C -->
<g id="edge2" class="edge">
<title>A&#45;&gt;C</title>
<path fill="none" stroke="black" d="M50.7,-26.26C66.5,-20.65 88.2,-13.91 108,-11 141.17,-6.13 179.39,-8.95 206.5,-12.35"/>
<polygon fill="black" stroke="black" points="206.29,-15.85 216.67,-13.72 207.23,-8.91 206.29,-15.85"/>
<text text-anchor="middle" x="135" y="-14.8" font-family="Times,serif" font-size="14.00">0.6</text>
</g>
<!-- B&#45;&gt;A -->
<g id="edge4" class="edge">
<title>B&#45;&gt;A</title>
<path fill="none" stroke="black" d="M114.09,-41.19C106.78,-37.48 98.26,-33.87 90,-32 81.46,-30.07 72.1,-29.66 63.3,-30.01"/>
<polygon fill="black" stroke="black" points="63.03,-26.52 53.31,-30.72 63.53,-33.5 63.03,-26.52"/>
<text text-anchor="middle" x="81" y="-35.8" font-family="Times,serif" font-size="14.00">0.2</text>
</g>
<!-- B&#45;&gt;B -->
<g id="edge5" class="edge">
<title>B&#45;&gt;B</title>
<path fill="none" stroke="black" d="M125.43,-70.04C123.48,-79.86 126.67,-89 135,-89 140.21,-89 143.41,-85.43 144.6,-80.35"/>
<polygon fill="black" stroke="black" points="148.1,-80.03 144.57,-70.04 141.1,-80.05 148.1,-80.03"/>
<text text-anchor="middle" x="135" y="-92.8" font-family="Times,serif" font-size="14.00">0.5</text>
</g>
<!-- B&#45;&gt;C -->
<g id="edge6" class="edge">
<title>B&#45;&gt;C</title>
<path fill="none" stroke="black" d="M159.52,-45.23C174.07,-40.43 192.96,-34.19 208.99,-28.9"/>
<polygon fill="black" stroke="black" points="210.14,-32.2 218.54,-25.75 207.95,-25.56 210.14,-32.2"/>
<text text-anchor="middle" x="189" y="-40.8" font-family="Times,serif" font-size="14.00">0.5</text>
</g>
<!-- C&#45;&gt;C -->
<g id="edge3" class="edge">
<title>C&#45;&gt;C</title>
<path fill="none" stroke="black" d="M233.43,-35.04C231.48,-44.86 234.67,-54 243,-54 248.21,-54 251.41,-50.43 252.6,-45.35"/>
<polygon fill="black" stroke="black" points="256.1,-45.03 252.57,-35.04 249.1,-45.05 256.1,-45.03"/>
<text text-anchor="middle" x="243" y="-57.8" font-family="Times,serif" font-size="14.00">1.0</text>
</g>
</g>
</svg>
