<?xml version="1.0" encoding="utf-8"?>
<svg xmlns="http://www.w3.org/2000/svg" xmlns:xlink="http://www.w3.org/1999/xlink" width="600" height="400" viewBox="0 0 2400 1600">
<defs>
  <clipPath id="clip600">
    <rect x="0" y="0" width="2400" height="1600"/>
  </clipPath>
</defs>
<path clip-path="url(#clip600)" d="
M0 1600 L2400 1600 L2400 0 L0 0  Z
  " fill="#ffffff" fill-rule="evenodd" fill-opacity="1"/>
<defs>
  <clipPath id="clip601">
    <rect x="480" y="0" width="1681" height="1600"/>
  </clipPath>
</defs>
<path clip-path="url(#clip600)" d="
M156.598 1486.45 L2352.76 1486.45 L2352.76 47.2441 L156.598 47.2441  Z
  " fill="#ffffff" fill-rule="evenodd" fill-opacity="1"/>
<defs>
  <clipPath id="clip602">
    <rect x="156" y="47" width="2197" height="1440"/>
  </clipPath>
</defs>
<polyline clip-path="url(#clip602)" style="stroke:#000000; stroke-width:2; stroke-opacity:0.1; fill:none" points="
  448.959,1486.45 448.959,47.2441 
  "/>
<polyline clip-path="url(#clip602)" style="stroke:#000000; stroke-width:2; stroke-opacity:0.1; fill:none" points="
  909.369,1486.45 909.369,47.2441 
  "/>
<polyline clip-path="url(#clip602)" style="stroke:#000000; stroke-width:2; stroke-opacity:0.1; fill:none" points="
  1369.78,1486.45 1369.78,47.2441 
  "/>
<polyline clip-path="url(#clip602)" style="stroke:#000000; stroke-width:2; stroke-opacity:0.1; fill:none" points="
  1830.19,1486.45 1830.19,47.2441 
  "/>
<polyline clip-path="url(#clip602)" style="stroke:#000000; stroke-width:2; stroke-opacity:0.1; fill:none" points="
  2290.6,1486.45 2290.6,47.2441 
  "/>
<polyline clip-path="url(#clip600)" style="stroke:#000000; stroke-width:4; stroke-opacity:1; fill:none" points="
  156.598,1486.45 2352.76,1486.45 
  "/>
<polyline clip-path="url(#clip600)" style="stroke:#000000; stroke-width:4; stroke-opacity:1; fill:none" points="
  448.959,1486.45 448.959,1469.18 
  "/>
<polyline clip-path="url(#clip600)" style="stroke:#000000; stroke-width:4; stroke-opacity:1; fill:none" points="
  909.369,1486.45 909.369,1469.18 
  "/>
<polyline clip-path="url(#clip600)" style="stroke:#000000; stroke-width:4; stroke-opacity:1; fill:none" points="
  1369.78,1486.45 1369.78,1469.18 
  "/>
<polyline clip-path="url(#clip600)" style="stroke:#000000; stroke-width:4; stroke-opacity:1; fill:none" points="
  1830.19,1486.45 1830.19,1469.18 
  "/>
<polyline clip-path="url(#clip600)" style="stroke:#000000; stroke-width:4; stroke-opacity:1; fill:none" points="
  2290.6,1486.45 2290.6,1469.18 
  "/>
<path clip-path="url(#clip600)" d="M 0 0 M427.142 1515.64 Q423.531 1515.64 421.702 1519.2 Q419.897 1522.75 419.897 1529.87 Q419.897 1536.98 421.702 1540.55 Q423.531 1544.09 427.142 1544.09 Q430.776 1544.09 432.582 1540.55 Q434.41 1536.98 434.41 1529.87 Q434.41 1522.75 432.582 1519.2 Q430.776 1515.64 427.142 1515.64 M427.142 1511.93 Q432.952 1511.93 436.008 1516.54 Q439.086 1521.12 439.086 1529.87 Q439.086 1538.6 436.008 1543.21 Q432.952 1547.79 427.142 1547.79 Q421.332 1547.79 418.253 1543.21 Q415.197 1538.6 415.197 1529.87 Q415.197 1521.12 418.253 1516.54 Q421.332 1511.93 427.142 1511.93 Z" fill="#000000" fill-rule="evenodd" fill-opacity="1" /><path clip-path="url(#clip600)" d="M 0 0 M447.304 1541.24 L452.188 1541.24 L452.188 1547.12 L447.304 1547.12 L447.304 1541.24 Z" fill="#000000" fill-rule="evenodd" fill-opacity="1" /><path clip-path="url(#clip600)" d="M 0 0 M466.401 1543.18 L482.72 1543.18 L482.72 1547.12 L460.776 1547.12 L460.776 1543.18 Q463.438 1540.43 468.021 1535.8 Q472.628 1531.15 473.808 1529.81 Q476.054 1527.28 476.933 1525.55 Q477.836 1523.79 477.836 1522.1 Q477.836 1519.34 475.892 1517.61 Q473.97 1515.87 470.868 1515.87 Q468.669 1515.87 466.216 1516.63 Q463.785 1517.4 461.007 1518.95 L461.007 1514.23 Q463.831 1513.09 466.285 1512.51 Q468.739 1511.93 470.776 1511.93 Q476.146 1511.93 479.341 1514.62 Q482.535 1517.31 482.535 1521.8 Q482.535 1523.93 481.725 1525.85 Q480.938 1527.74 478.831 1530.34 Q478.253 1531.01 475.151 1534.23 Q472.049 1537.42 466.401 1543.18 Z" fill="#000000" fill-rule="evenodd" fill-opacity="1" /><path clip-path="url(#clip600)" d="M 0 0 M886.511 1515.64 Q882.899 1515.64 881.071 1519.2 Q879.265 1522.75 879.265 1529.87 Q879.265 1536.98 881.071 1540.55 Q882.899 1544.09 886.511 1544.09 Q890.145 1544.09 891.95 1540.55 Q893.779 1536.98 893.779 1529.87 Q893.779 1522.75 891.95 1519.2 Q890.145 1515.64 886.511 1515.64 M886.511 1511.93 Q892.321 1511.93 895.376 1516.54 Q898.455 1521.12 898.455 1529.87 Q898.455 1538.6 895.376 1543.21 Q892.321 1547.79 886.511 1547.79 Q880.7 1547.79 877.622 1543.21 Q874.566 1538.6 874.566 1529.87 Q874.566 1521.12 877.622 1516.54 Q880.7 1511.93 886.511 1511.93 Z" fill="#000000" fill-rule="evenodd" fill-opacity="1" /><path clip-path="url(#clip600)" d="M 0 0 M906.673 1541.24 L911.557 1541.24 L911.557 1547.12 L906.673 1547.12 L906.673 1541.24 Z" fill="#000000" fill-rule="evenodd" fill-opacity="1" /><path clip-path="url(#clip600)" d="M 0 0 M934.589 1516.63 L922.784 1535.08 L934.589 1535.08 L934.589 1516.63 M933.362 1512.56 L939.242 1512.56 L939.242 1535.08 L944.172 1535.08 L944.172 1538.97 L939.242 1538.97 L939.242 1547.12 L934.589 1547.12 L934.589 1538.97 L918.987 1538.97 L918.987 1534.46 L933.362 1512.56 Z" fill="#000000" fill-rule="evenodd" fill-opacity="1" /><path clip-path="url(#clip600)" d="M 0 0 M1347.08 1515.64 Q1343.47 1515.64 1341.64 1519.2 Q1339.84 1522.75 1339.84 1529.87 Q1339.84 1536.98 1341.64 1540.55 Q1343.47 1544.09 1347.08 1544.09 Q1350.72 1544.09 1352.52 1540.55 Q1354.35 1536.98 1354.35 1529.87 Q1354.35 1522.75 1352.52 1519.2 Q1350.72 1515.64 1347.08 1515.64 M1347.08 1511.93 Q1352.89 1511.93 1355.95 1516.54 Q1359.03 1521.12 1359.03 1529.87 Q1359.03 1538.6 1355.95 1543.21 Q1352.89 1547.79 1347.08 1547.79 Q1341.27 1547.79 1338.19 1543.21 Q1335.14 1538.6 1335.14 1529.87 Q1335.14 1521.12 1338.19 1516.54 Q1341.27 1511.93 1347.08 1511.93 Z" fill="#000000" fill-rule="evenodd" fill-opacity="1" /><path clip-path="url(#clip600)" d="M 0 0 M1367.24 1541.24 L1372.13 1541.24 L1372.13 1547.12 L1367.24 1547.12 L1367.24 1541.24 Z" fill="#000000" fill-rule="evenodd" fill-opacity="1" /><path clip-path="url(#clip600)" d="M 0 0 M1392.89 1527.98 Q1389.74 1527.98 1387.89 1530.13 Q1386.06 1532.28 1386.06 1536.03 Q1386.06 1539.76 1387.89 1541.93 Q1389.74 1544.09 1392.89 1544.09 Q1396.04 1544.09 1397.87 1541.93 Q1399.72 1539.76 1399.72 1536.03 Q1399.72 1532.28 1397.87 1530.13 Q1396.04 1527.98 1392.89 1527.98 M1402.18 1513.32 L1402.18 1517.58 Q1400.42 1516.75 1398.61 1516.31 Q1396.83 1515.87 1395.07 1515.87 Q1390.44 1515.87 1387.99 1519 Q1385.56 1522.12 1385.21 1528.44 Q1386.57 1526.43 1388.63 1525.36 Q1390.69 1524.27 1393.17 1524.27 Q1398.38 1524.27 1401.39 1527.44 Q1404.42 1530.59 1404.42 1536.03 Q1404.42 1541.36 1401.27 1544.57 Q1398.12 1547.79 1392.89 1547.79 Q1386.9 1547.79 1383.73 1543.21 Q1380.56 1538.6 1380.56 1529.87 Q1380.56 1521.68 1384.44 1516.82 Q1388.33 1511.93 1394.88 1511.93 Q1396.64 1511.93 1398.43 1512.28 Q1400.23 1512.63 1402.18 1513.32 Z" fill="#000000" fill-rule="evenodd" fill-opacity="1" /><path clip-path="url(#clip600)" d="M 0 0 M1807.62 1515.64 Q1804.01 1515.64 1802.18 1519.2 Q1800.38 1522.75 1800.38 1529.87 Q1800.38 1536.98 1802.18 1540.55 Q1804.01 1544.09 1807.62 1544.09 Q1811.26 1544.09 1813.06 1540.55 Q1814.89 1536.98 1814.89 1529.87 Q1814.89 1522.75 1813.06 1519.2 Q1811.26 1515.64 1807.62 1515.64 M1807.62 1511.93 Q1813.43 1511.93 1816.49 1516.54 Q1819.57 1521.12 1819.57 1529.87 Q1819.57 1538.6 1816.49 1543.21 Q1813.43 1547.79 1807.62 1547.79 Q1801.81 1547.79 1798.73 1543.21 Q1795.68 1538.6 1795.68 1529.87 Q1795.68 1521.12 1798.73 1516.54 Q1801.81 1511.93 1807.62 1511.93 Z" fill="#000000" fill-rule="evenodd" fill-opacity="1" /><path clip-path="url(#clip600)" d="M 0 0 M1827.78 1541.24 L1832.67 1541.24 L1832.67 1547.12 L1827.78 1547.12 L1827.78 1541.24 Z" fill="#000000" fill-rule="evenodd" fill-opacity="1" /><path clip-path="url(#clip600)" d="M 0 0 M1852.85 1530.71 Q1849.52 1530.71 1847.6 1532.49 Q1845.7 1534.27 1845.7 1537.4 Q1845.7 1540.52 1847.6 1542.31 Q1849.52 1544.09 1852.85 1544.09 Q1856.19 1544.09 1858.11 1542.31 Q1860.03 1540.5 1860.03 1537.4 Q1860.03 1534.27 1858.11 1532.49 Q1856.21 1530.71 1852.85 1530.71 M1848.18 1528.72 Q1845.17 1527.98 1843.48 1525.92 Q1841.81 1523.86 1841.81 1520.89 Q1841.81 1516.75 1844.75 1514.34 Q1847.71 1511.93 1852.85 1511.93 Q1858.01 1511.93 1860.95 1514.34 Q1863.89 1516.75 1863.89 1520.89 Q1863.89 1523.86 1862.2 1525.92 Q1860.54 1527.98 1857.55 1528.72 Q1860.93 1529.5 1862.81 1531.8 Q1864.7 1534.09 1864.7 1537.4 Q1864.7 1542.42 1861.63 1545.11 Q1858.57 1547.79 1852.85 1547.79 Q1847.13 1547.79 1844.06 1545.11 Q1841 1542.42 1841 1537.4 Q1841 1534.09 1842.9 1531.8 Q1844.8 1529.5 1848.18 1528.72 M1846.46 1521.33 Q1846.46 1524.02 1848.13 1525.52 Q1849.82 1527.03 1852.85 1527.03 Q1855.86 1527.03 1857.55 1525.52 Q1859.26 1524.02 1859.26 1521.33 Q1859.26 1518.65 1857.55 1517.14 Q1855.86 1515.64 1852.85 1515.64 Q1849.82 1515.64 1848.13 1517.14 Q1846.46 1518.65 1846.46 1521.33 Z" fill="#000000" fill-rule="evenodd" fill-opacity="1" /><path clip-path="url(#clip600)" d="M 0 0 M2257.75 1543.18 L2265.39 1543.18 L2265.39 1516.82 L2257.08 1518.49 L2257.08 1514.23 L2265.35 1512.56 L2270.02 1512.56 L2270.02 1543.18 L2277.66 1543.18 L2277.66 1547.12 L2257.75 1547.12 L2257.75 1543.18 Z" fill="#000000" fill-rule="evenodd" fill-opacity="1" /><path clip-path="url(#clip600)" d="M 0 0 M2287.11 1541.24 L2291.99 1541.24 L2291.99 1547.12 L2287.11 1547.12 L2287.11 1541.24 Z" fill="#000000" fill-rule="evenodd" fill-opacity="1" /><path clip-path="url(#clip600)" d="M 0 0 M2312.17 1515.64 Q2308.56 1515.64 2306.73 1519.2 Q2304.93 1522.75 2304.93 1529.87 Q2304.93 1536.98 2306.73 1540.55 Q2308.56 1544.09 2312.17 1544.09 Q2315.81 1544.09 2317.61 1540.55 Q2319.44 1536.98 2319.44 1529.87 Q2319.44 1522.75 2317.61 1519.2 Q2315.81 1515.64 2312.17 1515.64 M2312.17 1511.93 Q2317.98 1511.93 2321.04 1516.54 Q2324.12 1521.12 2324.12 1529.87 Q2324.12 1538.6 2321.04 1543.21 Q2317.98 1547.79 2312.17 1547.79 Q2306.36 1547.79 2303.29 1543.21 Q2300.23 1538.6 2300.23 1529.87 Q2300.23 1521.12 2303.29 1516.54 Q2306.36 1511.93 2312.17 1511.93 Z" fill="#000000" fill-rule="evenodd" fill-opacity="1" /><polyline clip-path="url(#clip602)" style="stroke:#000000; stroke-width:2; stroke-opacity:0.1; fill:none" points="
  156.598,1466.45 2352.76,1466.45 
  "/>
<polyline clip-path="url(#clip602)" style="stroke:#000000; stroke-width:2; stroke-opacity:0.1; fill:none" points="
  156.598,1213.45 2352.76,1213.45 
  "/>
<polyline clip-path="url(#clip602)" style="stroke:#000000; stroke-width:2; stroke-opacity:0.1; fill:none" points="
  156.598,960.451 2352.76,960.451 
  "/>
<polyline clip-path="url(#clip602)" style="stroke:#000000; stroke-width:2; stroke-opacity:0.1; fill:none" points="
  156.598,707.452 2352.76,707.452 
  "/>
<polyline clip-path="url(#clip602)" style="stroke:#000000; stroke-width:2; stroke-opacity:0.1; fill:none" points="
  156.598,454.453 2352.76,454.453 
  "/>
<polyline clip-path="url(#clip602)" style="stroke:#000000; stroke-width:2; stroke-opacity:0.1; fill:none" points="
  156.598,201.454 2352.76,201.454 
  "/>
<polyline clip-path="url(#clip600)" style="stroke:#000000; stroke-width:4; stroke-opacity:1; fill:none" points="
  156.598,1486.45 156.598,47.2441 
  "/>
<polyline clip-path="url(#clip600)" style="stroke:#000000; stroke-width:4; stroke-opacity:1; fill:none" points="
  156.598,1466.45 182.952,1466.45 
  "/>
<polyline clip-path="url(#clip600)" style="stroke:#000000; stroke-width:4; stroke-opacity:1; fill:none" points="
  156.598,1213.45 182.952,1213.45 
  "/>
<polyline clip-path="url(#clip600)" style="stroke:#000000; stroke-width:4; stroke-opacity:1; fill:none" points="
  156.598,960.451 182.952,960.451 
  "/>
<polyline clip-path="url(#clip600)" style="stroke:#000000; stroke-width:4; stroke-opacity:1; fill:none" points="
  156.598,707.452 182.952,707.452 
  "/>
<polyline clip-path="url(#clip600)" style="stroke:#000000; stroke-width:4; stroke-opacity:1; fill:none" points="
  156.598,454.453 182.952,454.453 
  "/>
<polyline clip-path="url(#clip600)" style="stroke:#000000; stroke-width:4; stroke-opacity:1; fill:none" points="
  156.598,201.454 182.952,201.454 
  "/>
<path clip-path="url(#clip600)" d="M 0 0 M63.4226 1452.25 Q59.8115 1452.25 57.9828 1455.81 Q56.1773 1459.35 56.1773 1466.48 Q56.1773 1473.59 57.9828 1477.15 Q59.8115 1480.7 63.4226 1480.7 Q67.0569 1480.7 68.8624 1477.15 Q70.6911 1473.59 70.6911 1466.48 Q70.6911 1459.35 68.8624 1455.81 Q67.0569 1452.25 63.4226 1452.25 M63.4226 1448.54 Q69.2328 1448.54 72.2883 1453.15 Q75.367 1457.73 75.367 1466.48 Q75.367 1475.21 72.2883 1479.82 Q69.2328 1484.4 63.4226 1484.4 Q57.6125 1484.4 54.5338 1479.82 Q51.4782 1475.21 51.4782 1466.48 Q51.4782 1457.73 54.5338 1453.15 Q57.6125 1448.54 63.4226 1448.54 Z" fill="#000000" fill-rule="evenodd" fill-opacity="1" /><path clip-path="url(#clip600)" d="M 0 0 M83.5845 1477.85 L88.4688 1477.85 L88.4688 1483.73 L83.5845 1483.73 L83.5845 1477.85 Z" fill="#000000" fill-rule="evenodd" fill-opacity="1" /><path clip-path="url(#clip600)" d="M 0 0 M108.654 1452.25 Q105.043 1452.25 103.214 1455.81 Q101.409 1459.35 101.409 1466.48 Q101.409 1473.59 103.214 1477.15 Q105.043 1480.7 108.654 1480.7 Q112.288 1480.7 114.094 1477.15 Q115.922 1473.59 115.922 1466.48 Q115.922 1459.35 114.094 1455.81 Q112.288 1452.25 108.654 1452.25 M108.654 1448.54 Q114.464 1448.54 117.52 1453.15 Q120.598 1457.73 120.598 1466.48 Q120.598 1475.21 117.52 1479.82 Q114.464 1484.4 108.654 1484.4 Q102.844 1484.4 99.765 1479.82 Q96.7095 1475.21 96.7095 1466.48 Q96.7095 1457.73 99.765 1453.15 Q102.844 1448.54 108.654 1448.54 Z" fill="#000000" fill-rule="evenodd" fill-opacity="1" /><path clip-path="url(#clip600)" d="M 0 0 M64.6495 1199.25 Q61.0384 1199.25 59.2097 1202.81 Q57.4041 1206.35 57.4041 1213.48 Q57.4041 1220.59 59.2097 1224.16 Q61.0384 1227.7 64.6495 1227.7 Q68.2837 1227.7 70.0892 1224.16 Q71.9179 1220.59 71.9179 1213.48 Q71.9179 1206.35 70.0892 1202.81 Q68.2837 1199.25 64.6495 1199.25 M64.6495 1195.54 Q70.4596 1195.54 73.5152 1200.15 Q76.5938 1204.73 76.5938 1213.48 Q76.5938 1222.21 73.5152 1226.82 Q70.4596 1231.4 64.6495 1231.4 Q58.8393 1231.4 55.7606 1226.82 Q52.7051 1222.21 52.7051 1213.48 Q52.7051 1204.73 55.7606 1200.15 Q58.8393 1195.54 64.6495 1195.54 Z" fill="#000000" fill-rule="evenodd" fill-opacity="1" /><path clip-path="url(#clip600)" d="M 0 0 M84.8114 1224.85 L89.6956 1224.85 L89.6956 1230.73 L84.8114 1230.73 L84.8114 1224.85 Z" fill="#000000" fill-rule="evenodd" fill-opacity="1" /><path clip-path="url(#clip600)" d="M 0 0 M100.691 1226.79 L108.33 1226.79 L108.33 1200.43 L100.02 1202.1 L100.02 1197.84 L108.283 1196.17 L112.959 1196.17 L112.959 1226.79 L120.598 1226.79 L120.598 1230.73 L100.691 1230.73 L100.691 1226.79 Z" fill="#000000" fill-rule="evenodd" fill-opacity="1" /><path clip-path="url(#clip600)" d="M 0 0 M65.0198 946.25 Q61.4087 946.25 59.58 949.814 Q57.7745 953.356 57.7745 960.486 Q57.7745 967.592 59.58 971.157 Q61.4087 974.699 65.0198 974.699 Q68.6541 974.699 70.4596 971.157 Q72.2883 967.592 72.2883 960.486 Q72.2883 953.356 70.4596 949.814 Q68.6541 946.25 65.0198 946.25 M65.0198 942.546 Q70.83 942.546 73.8855 947.152 Q76.9642 951.736 76.9642 960.486 Q76.9642 969.212 73.8855 973.819 Q70.83 978.402 65.0198 978.402 Q59.2097 978.402 56.131 973.819 Q53.0754 969.212 53.0754 960.486 Q53.0754 951.736 56.131 947.152 Q59.2097 942.546 65.0198 942.546 Z" fill="#000000" fill-rule="evenodd" fill-opacity="1" /><path clip-path="url(#clip600)" d="M 0 0 M85.1818 971.851 L90.066 971.851 L90.066 977.731 L85.1818 977.731 L85.1818 971.851 Z" fill="#000000" fill-rule="evenodd" fill-opacity="1" /><path clip-path="url(#clip600)" d="M 0 0 M104.279 973.796 L120.598 973.796 L120.598 977.731 L98.6539 977.731 L98.6539 973.796 Q101.316 971.041 105.899 966.412 Q110.506 961.759 111.686 960.416 Q113.932 957.893 114.811 956.157 Q115.714 954.398 115.714 952.708 Q115.714 949.953 113.77 948.217 Q111.848 946.481 108.746 946.481 Q106.547 946.481 104.094 947.245 Q101.663 948.009 98.8854 949.56 L98.8854 944.838 Q101.709 943.703 104.163 943.125 Q106.617 942.546 108.654 942.546 Q114.024 942.546 117.219 945.231 Q120.413 947.916 120.413 952.407 Q120.413 954.537 119.603 956.458 Q118.816 958.356 116.709 960.949 Q116.131 961.62 113.029 964.837 Q109.927 968.032 104.279 973.796 Z" fill="#000000" fill-rule="evenodd" fill-opacity="1" /><path clip-path="url(#clip600)" d="M 0 0 M64.0708 693.251 Q60.4597 693.251 58.631 696.816 Q56.8254 700.357 56.8254 707.487 Q56.8254 714.593 58.631 718.158 Q60.4597 721.7 64.0708 721.7 Q67.705 721.7 69.5105 718.158 Q71.3392 714.593 71.3392 707.487 Q71.3392 700.357 69.5105 696.816 Q67.705 693.251 64.0708 693.251 M64.0708 689.547 Q69.8809 689.547 72.9365 694.154 Q76.0151 698.737 76.0151 707.487 Q76.0151 716.214 72.9365 720.82 Q69.8809 725.403 64.0708 725.403 Q58.2606 725.403 55.1819 720.82 Q52.1264 716.214 52.1264 707.487 Q52.1264 698.737 55.1819 694.154 Q58.2606 689.547 64.0708 689.547 Z" fill="#000000" fill-rule="evenodd" fill-opacity="1" /><path clip-path="url(#clip600)" d="M 0 0 M84.2327 718.852 L89.1169 718.852 L89.1169 724.732 L84.2327 724.732 L84.2327 718.852 Z" fill="#000000" fill-rule="evenodd" fill-opacity="1" /><path clip-path="url(#clip600)" d="M 0 0 M113.469 706.098 Q116.825 706.816 118.7 709.084 Q120.598 711.353 120.598 714.686 Q120.598 719.802 117.08 722.602 Q113.561 725.403 107.08 725.403 Q104.904 725.403 102.589 724.964 Q100.297 724.547 97.8437 723.69 L97.8437 719.177 Q99.7882 720.311 102.103 720.89 Q104.418 721.468 106.941 721.468 Q111.339 721.468 113.631 719.732 Q115.945 717.996 115.945 714.686 Q115.945 711.63 113.793 709.917 Q111.663 708.181 107.844 708.181 L103.816 708.181 L103.816 704.339 L108.029 704.339 Q111.478 704.339 113.307 702.973 Q115.135 701.584 115.135 698.991 Q115.135 696.329 113.237 694.917 Q111.362 693.482 107.844 693.482 Q105.922 693.482 103.723 693.899 Q101.524 694.316 98.8854 695.195 L98.8854 691.029 Q101.547 690.288 103.862 689.917 Q106.2 689.547 108.26 689.547 Q113.584 689.547 116.686 691.978 Q119.788 694.385 119.788 698.505 Q119.788 701.376 118.145 703.366 Q116.501 705.334 113.469 706.098 Z" fill="#000000" fill-rule="evenodd" fill-opacity="1" /><path clip-path="url(#clip600)" d="M 0 0 M62.9365 440.252 Q59.3254 440.252 57.4967 443.817 Q55.6912 447.358 55.6912 454.488 Q55.6912 461.594 57.4967 465.159 Q59.3254 468.701 62.9365 468.701 Q66.5707 468.701 68.3763 465.159 Q70.205 461.594 70.205 454.488 Q70.205 447.358 68.3763 443.817 Q66.5707 440.252 62.9365 440.252 M62.9365 436.548 Q68.7467 436.548 71.8022 441.155 Q74.8809 445.738 74.8809 454.488 Q74.8809 463.215 71.8022 467.821 Q68.7467 472.405 62.9365 472.405 Q57.1264 472.405 54.0477 467.821 Q50.9921 463.215 50.9921 454.488 Q50.9921 445.738 54.0477 441.155 Q57.1264 436.548 62.9365 436.548 Z" fill="#000000" fill-rule="evenodd" fill-opacity="1" /><path clip-path="url(#clip600)" d="M 0 0 M83.0984 465.854 L87.9827 465.854 L87.9827 471.733 L83.0984 471.733 L83.0984 465.854 Z" fill="#000000" fill-rule="evenodd" fill-opacity="1" /><path clip-path="url(#clip600)" d="M 0 0 M111.015 441.247 L99.2095 459.696 L111.015 459.696 L111.015 441.247 M109.788 437.173 L115.668 437.173 L115.668 459.696 L120.598 459.696 L120.598 463.585 L115.668 463.585 L115.668 471.733 L111.015 471.733 L111.015 463.585 L95.4132 463.585 L95.4132 459.071 L109.788 437.173 Z" fill="#000000" fill-rule="evenodd" fill-opacity="1" /><path clip-path="url(#clip600)" d="M 0 0 M64.418 187.253 Q60.8069 187.253 58.9782 190.818 Q57.1726 194.36 57.1726 201.489 Q57.1726 208.596 58.9782 212.16 Q60.8069 215.702 64.418 215.702 Q68.0522 215.702 69.8578 212.16 Q71.6865 208.596 71.6865 201.489 Q71.6865 194.36 69.8578 190.818 Q68.0522 187.253 64.418 187.253 M64.418 183.549 Q70.2281 183.549 73.2837 188.156 Q76.3624 192.739 76.3624 201.489 Q76.3624 210.216 73.2837 214.822 Q70.2281 219.406 64.418 219.406 Q58.6078 219.406 55.5291 214.822 Q52.4736 210.216 52.4736 201.489 Q52.4736 192.739 55.5291 188.156 Q58.6078 183.549 64.418 183.549 Z" fill="#000000" fill-rule="evenodd" fill-opacity="1" /><path clip-path="url(#clip600)" d="M 0 0 M84.5799 212.855 L89.4641 212.855 L89.4641 218.734 L84.5799 218.734 L84.5799 212.855 Z" fill="#000000" fill-rule="evenodd" fill-opacity="1" /><path clip-path="url(#clip600)" d="M 0 0 M99.6956 184.174 L118.052 184.174 L118.052 188.11 L103.978 188.11 L103.978 196.582 Q104.996 196.235 106.015 196.073 Q107.033 195.887 108.052 195.887 Q113.839 195.887 117.219 199.059 Q120.598 202.23 120.598 207.647 Q120.598 213.225 117.126 216.327 Q113.654 219.406 107.334 219.406 Q105.159 219.406 102.89 219.035 Q100.645 218.665 98.2372 217.924 L98.2372 213.225 Q100.321 214.36 102.543 214.915 Q104.765 215.471 107.242 215.471 Q111.246 215.471 113.584 213.364 Q115.922 211.258 115.922 207.647 Q115.922 204.035 113.584 201.929 Q111.246 199.823 107.242 199.823 Q105.367 199.823 103.492 200.239 Q101.64 200.656 99.6956 201.535 L99.6956 184.174 Z" fill="#000000" fill-rule="evenodd" fill-opacity="1" /><polyline clip-path="url(#clip602)" style="stroke:#009af9; stroke-width:4; stroke-opacity:1; fill:none" points="
  218.754,1445.72 239.681,1374.84 260.609,1307.5 281.537,1243.42 302.465,1182.35 323.392,1124.08 344.32,1068.43 365.248,1015.24 386.176,964.352 407.103,915.655 
  428.031,869.032 448.959,824.38 469.887,781.607 490.814,740.63 511.742,701.373 532.67,663.766 553.598,627.745 574.525,593.252 595.453,560.233 616.381,528.636 
  637.309,498.417 658.236,469.532 679.164,441.941 700.092,415.606 721.02,390.492 741.947,366.567 762.875,343.799 783.803,322.16 804.731,301.622 825.658,282.16 
  846.586,263.75 867.514,246.369 888.442,229.994 909.369,214.607 930.297,200.186 951.225,186.713 972.152,174.172 993.08,162.545 1014.01,151.816 1034.94,141.97 
  1055.86,132.993 1076.79,124.87 1097.72,117.589 1118.65,111.136 1139.57,105.5 1160.5,100.668 1181.43,96.6296 1202.36,93.3739 1223.29,90.8906 1244.21,89.1696 
  1265.14,88.2012 1286.07,87.9763 1307,88.4858 1327.92,89.721 1348.85,91.6738 1369.78,94.3359 1390.71,97.6996 1411.64,101.757 1432.56,106.502 1453.49,111.926 
  1474.42,118.022 1495.35,124.785 1516.27,132.207 1537.2,140.283 1558.13,149.005 1579.06,158.369 1599.98,168.368 1620.91,178.996 1641.84,190.249 1662.77,202.12 
  1683.7,214.605 1704.62,227.698 1725.55,241.394 1746.48,255.688 1767.41,270.576 1788.33,286.053 1809.26,302.115 1830.19,318.756 1851.12,335.972 1872.05,353.759 
  1892.97,372.113 1913.9,391.03 1934.83,410.505 1955.76,430.535 1976.68,451.115 1997.61,472.242 2018.54,493.912 2039.47,516.121 2060.4,538.866 2081.32,562.142 
  2102.25,585.946 2123.18,610.276 2144.11,635.126 2165.03,660.494 2185.96,686.377 2206.89,712.771 2227.82,739.672 2248.75,767.078 2269.67,794.986 2290.6,823.392 
  
  "/>
<path clip-path="url(#clip600)" d="
M1983.1 216.178 L2279.55 216.178 L2279.55 95.2176 L1983.1 95.2176  Z
  " fill="#ffffff" fill-rule="evenodd" fill-opacity="1"/>
<polyline clip-path="url(#clip600)" style="stroke:#000000; stroke-width:4; stroke-opacity:1; fill:none" points="
  1983.1,216.178 2279.55,216.178 2279.55,95.2176 1983.1,95.2176 1983.1,216.178 
  "/>
<polyline clip-path="url(#clip600)" style="stroke:#009af9; stroke-width:4; stroke-opacity:1; fill:none" points="
  2007.5,155.698 2153.92,155.698 
  "/>
<path clip-path="url(#clip600)" d="M 0 0 M2192.16 175.385 Q2190.35 180.015 2188.64 181.427 Q2186.93 182.839 2184.06 182.839 L2180.65 182.839 L2180.65 179.274 L2183.15 179.274 Q2184.91 179.274 2185.89 178.44 Q2186.86 177.607 2188.04 174.505 L2188.8 172.561 L2178.32 147.052 L2182.83 147.052 L2190.93 167.329 L2199.03 147.052 L2203.55 147.052 L2192.16 175.385 Z" fill="#000000" fill-rule="evenodd" fill-opacity="1" /><path clip-path="url(#clip600)" d="M 0 0 M2210.84 169.042 L2218.48 169.042 L2218.48 142.677 L2210.17 144.343 L2210.17 140.084 L2218.43 138.418 L2223.11 138.418 L2223.11 169.042 L2230.75 169.042 L2230.75 172.978 L2210.84 172.978 L2210.84 169.042 Z" fill="#000000" fill-rule="evenodd" fill-opacity="1" /></svg>
