<?xml version="1.0" encoding="utf-8"?>
<svg xmlns="http://www.w3.org/2000/svg" xmlns:xlink="http://www.w3.org/1999/xlink" width="600" height="400" viewBox="0 0 2400 1600">
<defs>
  <clipPath id="clip640">
    <rect x="0" y="0" width="2400" height="1600"/>
  </clipPath>
</defs>
<path clip-path="url(#clip640)" d="
M0 1600 L2400 1600 L2400 0 L0 0  Z
  " fill="#ffffff" fill-rule="evenodd" fill-opacity="1"/>
<defs>
  <clipPath id="clip641">
    <rect x="480" y="0" width="1681" height="1600"/>
  </clipPath>
</defs>
<path clip-path="url(#clip640)" d="
M156.598 1486.45 L2352.76 1486.45 L2352.76 47.2441 L156.598 47.2441  Z
  " fill="#ffffff" fill-rule="evenodd" fill-opacity="1"/>
<defs>
  <clipPath id="clip642">
    <rect x="156" y="47" width="2197" height="1440"/>
  </clipPath>
</defs>
<polyline clip-path="url(#clip642)" style="stroke:#000000; stroke-width:2; stroke-opacity:0.1; fill:none" points="
  448.959,1486.45 448.959,47.2441 
  "/>
<polyline clip-path="url(#clip642)" style="stroke:#000000; stroke-width:2; stroke-opacity:0.1; fill:none" points="
  909.369,1486.45 909.369,47.2441 
  "/>
<polyline clip-path="url(#clip642)" style="stroke:#000000; stroke-width:2; stroke-opacity:0.1; fill:none" points="
  1369.78,1486.45 1369.78,47.2441 
  "/>
<polyline clip-path="url(#clip642)" style="stroke:#000000; stroke-width:2; stroke-opacity:0.1; fill:none" points="
  1830.19,1486.45 1830.19,47.2441 
  "/>
<polyline clip-path="url(#clip642)" style="stroke:#000000; stroke-width:2; stroke-opacity:0.1; fill:none" points="
  2290.6,1486.45 2290.6,47.2441 
  "/>
<polyline clip-path="url(#clip640)" style="stroke:#000000; stroke-width:4; stroke-opacity:1; fill:none" points="
  156.598,1486.45 2352.76,1486.45 
  "/>
<polyline clip-path="url(#clip640)" style="stroke:#000000; stroke-width:4; stroke-opacity:1; fill:none" points="
  448.959,1486.45 448.959,1469.18 
  "/>
<polyline clip-path="url(#clip640)" style="stroke:#000000; stroke-width:4; stroke-opacity:1; fill:none" points="
  909.369,1486.45 909.369,1469.18 
  "/>
<polyline clip-path="url(#clip640)" style="stroke:#000000; stroke-width:4; stroke-opacity:1; fill:none" points="
  1369.78,1486.45 1369.78,1469.18 
  "/>
<polyline clip-path="url(#clip640)" style="stroke:#000000; stroke-width:4; stroke-opacity:1; fill:none" points="
  1830.19,1486.45 1830.19,1469.18 
  "/>
<polyline clip-path="url(#clip640)" style="stroke:#000000; stroke-width:4; stroke-opacity:1; fill:none" points="
  2290.6,1486.45 2290.6,1469.18 
  "/>
<path clip-path="url(#clip640)" d="M 0 0 M427.142 1515.64 Q423.531 1515.64 421.702 1519.2 Q419.897 1522.75 419.897 1529.87 Q419.897 1536.98 421.702 1540.55 Q423.531 1544.09 427.142 1544.09 Q430.776 1544.09 432.582 1540.55 Q434.41 1536.98 434.41 1529.87 Q434.41 1522.75 432.582 1519.2 Q430.776 1515.64 427.142 1515.64 M427.142 1511.93 Q432.952 1511.93 436.008 1516.54 Q439.086 1521.12 439.086 1529.87 Q439.086 1538.6 436.008 1543.21 Q432.952 1547.79 427.142 1547.79 Q421.332 1547.79 418.253 1543.21 Q415.197 1538.6 415.197 1529.87 Q415.197 1521.12 418.253 1516.54 Q421.332 1511.93 427.142 1511.93 Z" fill="#000000" fill-rule="evenodd" fill-opacity="1" /><path clip-path="url(#clip640)" d="M 0 0 M447.304 1541.24 L452.188 1541.24 L452.188 1547.12 L447.304 1547.12 L447.304 1541.24 Z" fill="#000000" fill-rule="evenodd" fill-opacity="1" /><path clip-path="url(#clip640)" d="M 0 0 M466.401 1543.18 L482.72 1543.18 L482.72 1547.12 L460.776 1547.12 L460.776 1543.18 Q463.438 1540.43 468.021 1535.8 Q472.628 1531.15 473.808 1529.81 Q476.054 1527.28 476.933 1525.55 Q477.836 1523.79 477.836 1522.1 Q477.836 1519.34 475.892 1517.61 Q473.97 1515.87 470.868 1515.87 Q468.669 1515.87 466.216 1516.63 Q463.785 1517.4 461.007 1518.95 L461.007 1514.23 Q463.831 1513.09 466.285 1512.51 Q468.739 1511.93 470.776 1511.93 Q476.146 1511.93 479.341 1514.62 Q482.535 1517.31 482.535 1521.8 Q482.535 1523.93 481.725 1525.85 Q480.938 1527.74 478.831 1530.34 Q478.253 1531.01 475.151 1534.23 Q472.049 1537.42 466.401 1543.18 Z" fill="#000000" fill-rule="evenodd" fill-opacity="1" /><path clip-path="url(#clip640)" d="M 0 0 M886.511 1515.64 Q882.899 1515.64 881.071 1519.2 Q879.265 1522.75 879.265 1529.87 Q879.265 1536.98 881.071 1540.55 Q882.899 1544.09 886.511 1544.09 Q890.145 1544.09 891.95 1540.55 Q893.779 1536.98 893.779 1529.87 Q893.779 1522.75 891.95 1519.2 Q890.145 1515.64 886.511 1515.64 M886.511 1511.93 Q892.321 1511.93 895.376 1516.54 Q898.455 1521.12 898.455 1529.87 Q898.455 1538.6 895.376 1543.21 Q892.321 1547.79 886.511 1547.79 Q880.7 1547.79 877.622 1543.21 Q874.566 1538.6 874.566 1529.87 Q874.566 1521.12 877.622 1516.54 Q880.7 1511.93 886.511 1511.93 Z" fill="#000000" fill-rule="evenodd" fill-opacity="1" /><path clip-path="url(#clip640)" d="M 0 0 M906.673 1541.24 L911.557 1541.24 L911.557 1547.12 L906.673 1547.12 L906.673 1541.24 Z" fill="#000000" fill-rule="evenodd" fill-opacity="1" /><path clip-path="url(#clip640)" d="M 0 0 M934.589 1516.63 L922.784 1535.08 L934.589 1535.08 L934.589 1516.63 M933.362 1512.56 L939.242 1512.56 L939.242 1535.08 L944.172 1535.08 L944.172 1538.97 L939.242 1538.97 L939.242 1547.12 L934.589 1547.12 L934.589 1538.97 L918.987 1538.97 L918.987 1534.46 L933.362 1512.56 Z" fill="#000000" fill-rule="evenodd" fill-opacity="1" /><path clip-path="url(#clip640)" d="M 0 0 M1347.08 1515.64 Q1343.47 1515.64 1341.64 1519.2 Q1339.84 1522.75 1339.84 1529.87 Q1339.84 1536.98 1341.64 1540.55 Q1343.47 1544.09 1347.08 1544.09 Q1350.72 1544.09 1352.52 1540.55 Q1354.35 1536.98 1354.35 1529.87 Q1354.35 1522.75 1352.52 1519.2 Q1350.72 1515.64 1347.08 1515.64 M1347.08 1511.93 Q1352.89 1511.93 1355.95 1516.54 Q1359.03 1521.12 1359.03 1529.87 Q1359.03 1538.6 1355.95 1543.21 Q1352.89 1547.79 1347.08 1547.79 Q1341.27 1547.79 1338.19 1543.21 Q1335.14 1538.6 1335.14 1529.87 Q1335.14 1521.12 1338.19 1516.54 Q1341.27 1511.93 1347.08 1511.93 Z" fill="#000000" fill-rule="evenodd" fill-opacity="1" /><path clip-path="url(#clip640)" d="M 0 0 M1367.24 1541.24 L1372.13 1541.24 L1372.13 1547.12 L1367.24 1547.12 L1367.24 1541.24 Z" fill="#000000" fill-rule="evenodd" fill-opacity="1" /><path clip-path="url(#clip640)" d="M 0 0 M1392.89 1527.98 Q1389.74 1527.98 1387.89 1530.13 Q1386.06 1532.28 1386.06 1536.03 Q1386.06 1539.76 1387.89 1541.93 Q1389.74 1544.09 1392.89 1544.09 Q1396.04 1544.09 1397.87 1541.93 Q1399.72 1539.76 1399.72 1536.03 Q1399.72 1532.28 1397.87 1530.13 Q1396.04 1527.98 1392.89 1527.98 M1402.18 1513.32 L1402.18 1517.58 Q1400.42 1516.75 1398.61 1516.31 Q1396.83 1515.87 1395.07 1515.87 Q1390.44 1515.87 1387.99 1519 Q1385.56 1522.12 1385.21 1528.44 Q1386.57 1526.43 1388.63 1525.36 Q1390.69 1524.27 1393.17 1524.27 Q1398.38 1524.27 1401.39 1527.44 Q1404.42 1530.59 1404.42 1536.03 Q1404.42 1541.36 1401.27 1544.57 Q1398.12 1547.79 1392.89 1547.79 Q1386.9 1547.79 1383.73 1543.21 Q1380.56 1538.6 1380.56 1529.87 Q1380.56 1521.68 1384.44 1516.82 Q1388.33 1511.93 1394.88 1511.93 Q1396.64 1511.93 1398.43 1512.28 Q1400.23 1512.63 1402.18 1513.32 Z" fill="#000000" fill-rule="evenodd" fill-opacity="1" /><path clip-path="url(#clip640)" d="M 0 0 M1807.62 1515.64 Q1804.01 1515.64 1802.18 1519.2 Q1800.38 1522.75 1800.38 1529.87 Q1800.38 1536.98 1802.18 1540.55 Q1804.01 1544.09 1807.62 1544.09 Q1811.26 1544.09 1813.06 1540.55 Q1814.89 1536.98 1814.89 1529.87 Q1814.89 1522.75 1813.06 1519.2 Q1811.26 1515.64 1807.62 1515.64 M1807.62 1511.93 Q1813.43 1511.93 1816.49 1516.54 Q1819.57 1521.12 1819.57 1529.87 Q1819.57 1538.6 1816.49 1543.21 Q1813.43 1547.79 1807.62 1547.79 Q1801.81 1547.79 1798.73 1543.21 Q1795.68 1538.6 1795.68 1529.87 Q1795.68 1521.12 1798.73 1516.54 Q1801.81 1511.93 1807.62 1511.93 Z" fill="#000000" fill-rule="evenodd" fill-opacity="1" /><path clip-path="url(#clip640)" d="M 0 0 M1827.78 1541.24 L1832.67 1541.24 L1832.67 1547.12 L1827.78 1547.12 L1827.78 1541.24 Z" fill="#000000" fill-rule="evenodd" fill-opacity="1" /><path clip-path="url(#clip640)" d="M 0 0 M1852.85 1530.71 Q1849.52 1530.71 1847.6 1532.49 Q1845.7 1534.27 1845.7 1537.4 Q1845.7 1540.52 1847.6 1542.31 Q1849.52 1544.09 1852.85 1544.09 Q1856.19 1544.09 1858.11 1542.31 Q1860.03 1540.5 1860.03 1537.4 Q1860.03 1534.27 1858.11 1532.49 Q1856.21 1530.71 1852.85 1530.71 M1848.18 1528.72 Q1845.17 1527.98 1843.48 1525.92 Q1841.81 1523.86 1841.81 1520.89 Q1841.81 1516.75 1844.75 1514.34 Q1847.71 1511.93 1852.85 1511.93 Q1858.01 1511.93 1860.95 1514.34 Q1863.89 1516.75 1863.89 1520.89 Q1863.89 1523.86 1862.2 1525.92 Q1860.54 1527.98 1857.55 1528.72 Q1860.93 1529.5 1862.81 1531.8 Q1864.7 1534.09 1864.7 1537.4 Q1864.7 1542.42 1861.63 1545.11 Q1858.57 1547.79 1852.85 1547.79 Q1847.13 1547.79 1844.06 1545.11 Q1841 1542.42 1841 1537.4 Q1841 1534.09 1842.9 1531.8 Q1844.8 1529.5 1848.18 1528.72 M1846.46 1521.33 Q1846.46 1524.02 1848.13 1525.52 Q1849.82 1527.03 1852.85 1527.03 Q1855.86 1527.03 1857.55 1525.52 Q1859.26 1524.02 1859.26 1521.33 Q1859.26 1518.65 1857.55 1517.14 Q1855.86 1515.64 1852.85 1515.64 Q1849.82 1515.64 1848.13 1517.14 Q1846.46 1518.65 1846.46 1521.33 Z" fill="#000000" fill-rule="evenodd" fill-opacity="1" /><path clip-path="url(#clip640)" d="M 0 0 M2257.75 1543.18 L2265.39 1543.18 L2265.39 1516.82 L2257.08 1518.49 L2257.08 1514.23 L2265.35 1512.56 L2270.02 1512.56 L2270.02 1543.18 L2277.66 1543.18 L2277.66 1547.12 L2257.75 1547.12 L2257.75 1543.18 Z" fill="#000000" fill-rule="evenodd" fill-opacity="1" /><path clip-path="url(#clip640)" d="M 0 0 M2287.11 1541.24 L2291.99 1541.24 L2291.99 1547.12 L2287.11 1547.12 L2287.11 1541.24 Z" fill="#000000" fill-rule="evenodd" fill-opacity="1" /><path clip-path="url(#clip640)" d="M 0 0 M2312.17 1515.64 Q2308.56 1515.64 2306.73 1519.2 Q2304.93 1522.75 2304.93 1529.87 Q2304.93 1536.98 2306.73 1540.55 Q2308.56 1544.09 2312.17 1544.09 Q2315.81 1544.09 2317.61 1540.55 Q2319.44 1536.98 2319.44 1529.87 Q2319.44 1522.75 2317.61 1519.2 Q2315.81 1515.64 2312.17 1515.64 M2312.17 1511.93 Q2317.98 1511.93 2321.04 1516.54 Q2324.12 1521.12 2324.12 1529.87 Q2324.12 1538.6 2321.04 1543.21 Q2317.98 1547.79 2312.17 1547.79 Q2306.36 1547.79 2303.29 1543.21 Q2300.23 1538.6 2300.23 1529.87 Q2300.23 1521.12 2303.29 1516.54 Q2306.36 1511.93 2312.17 1511.93 Z" fill="#000000" fill-rule="evenodd" fill-opacity="1" /><polyline clip-path="url(#clip642)" style="stroke:#000000; stroke-width:2; stroke-opacity:0.1; fill:none" points="
  156.598,1466.45 2352.76,1466.45 
  "/>
<polyline clip-path="url(#clip642)" style="stroke:#000000; stroke-width:2; stroke-opacity:0.1; fill:none" points="
  156.598,1213.45 2352.76,1213.45 
  "/>
<polyline clip-path="url(#clip642)" style="stroke:#000000; stroke-width:2; stroke-opacity:0.1; fill:none" points="
  156.598,960.456 2352.76,960.456 
  "/>
<polyline clip-path="url(#clip642)" style="stroke:#000000; stroke-width:2; stroke-opacity:0.1; fill:none" points="
  156.598,707.46 2352.76,707.46 
  "/>
<polyline clip-path="url(#clip642)" style="stroke:#000000; stroke-width:2; stroke-opacity:0.1; fill:none" points="
  156.598,454.464 2352.76,454.464 
  "/>
<polyline clip-path="url(#clip642)" style="stroke:#000000; stroke-width:2; stroke-opacity:0.1; fill:none" points="
  156.598,201.467 2352.76,201.467 
  "/>
<polyline clip-path="url(#clip640)" style="stroke:#000000; stroke-width:4; stroke-opacity:1; fill:none" points="
  156.598,1486.45 156.598,47.2441 
  "/>
<polyline clip-path="url(#clip640)" style="stroke:#000000; stroke-width:4; stroke-opacity:1; fill:none" points="
  156.598,1466.45 182.952,1466.45 
  "/>
<polyline clip-path="url(#clip640)" style="stroke:#000000; stroke-width:4; stroke-opacity:1; fill:none" points="
  156.598,1213.45 182.952,1213.45 
  "/>
<polyline clip-path="url(#clip640)" style="stroke:#000000; stroke-width:4; stroke-opacity:1; fill:none" points="
  156.598,960.456 182.952,960.456 
  "/>
<polyline clip-path="url(#clip640)" style="stroke:#000000; stroke-width:4; stroke-opacity:1; fill:none" points="
  156.598,707.46 182.952,707.46 
  "/>
<polyline clip-path="url(#clip640)" style="stroke:#000000; stroke-width:4; stroke-opacity:1; fill:none" points="
  156.598,454.464 182.952,454.464 
  "/>
<polyline clip-path="url(#clip640)" style="stroke:#000000; stroke-width:4; stroke-opacity:1; fill:none" points="
  156.598,201.467 182.952,201.467 
  "/>
<path clip-path="url(#clip640)" d="M 0 0 M63.4226 1452.25 Q59.8115 1452.25 57.9828 1455.81 Q56.1773 1459.35 56.1773 1466.48 Q56.1773 1473.59 57.9828 1477.15 Q59.8115 1480.7 63.4226 1480.7 Q67.0569 1480.7 68.8624 1477.15 Q70.6911 1473.59 70.6911 1466.48 Q70.6911 1459.35 68.8624 1455.81 Q67.0569 1452.25 63.4226 1452.25 M63.4226 1448.54 Q69.2328 1448.54 72.2883 1453.15 Q75.367 1457.73 75.367 1466.48 Q75.367 1475.21 72.2883 1479.82 Q69.2328 1484.4 63.4226 1484.4 Q57.6125 1484.4 54.5338 1479.82 Q51.4782 1475.21 51.4782 1466.48 Q51.4782 1457.73 54.5338 1453.15 Q57.6125 1448.54 63.4226 1448.54 Z" fill="#000000" fill-rule="evenodd" fill-opacity="1" /><path clip-path="url(#clip640)" d="M 0 0 M83.5845 1477.85 L88.4688 1477.85 L88.4688 1483.73 L83.5845 1483.73 L83.5845 1477.85 Z" fill="#000000" fill-rule="evenodd" fill-opacity="1" /><path clip-path="url(#clip640)" d="M 0 0 M108.654 1452.25 Q105.043 1452.25 103.214 1455.81 Q101.409 1459.35 101.409 1466.48 Q101.409 1473.59 103.214 1477.15 Q105.043 1480.7 108.654 1480.7 Q112.288 1480.7 114.094 1477.15 Q115.922 1473.59 115.922 1466.48 Q115.922 1459.35 114.094 1455.81 Q112.288 1452.25 108.654 1452.25 M108.654 1448.54 Q114.464 1448.54 117.52 1453.15 Q120.598 1457.73 120.598 1466.48 Q120.598 1475.21 117.52 1479.82 Q114.464 1484.4 108.654 1484.4 Q102.844 1484.4 99.765 1479.82 Q96.7095 1475.21 96.7095 1466.48 Q96.7095 1457.73 99.765 1453.15 Q102.844 1448.54 108.654 1448.54 Z" fill="#000000" fill-rule="evenodd" fill-opacity="1" /><path clip-path="url(#clip640)" d="M 0 0 M64.6495 1199.25 Q61.0384 1199.25 59.2097 1202.82 Q57.4041 1206.36 57.4041 1213.49 Q57.4041 1220.59 59.2097 1224.16 Q61.0384 1227.7 64.6495 1227.7 Q68.2837 1227.7 70.0892 1224.16 Q71.9179 1220.59 71.9179 1213.49 Q71.9179 1206.36 70.0892 1202.82 Q68.2837 1199.25 64.6495 1199.25 M64.6495 1195.55 Q70.4596 1195.55 73.5152 1200.15 Q76.5938 1204.74 76.5938 1213.49 Q76.5938 1222.21 73.5152 1226.82 Q70.4596 1231.4 64.6495 1231.4 Q58.8393 1231.4 55.7606 1226.82 Q52.7051 1222.21 52.7051 1213.49 Q52.7051 1204.74 55.7606 1200.15 Q58.8393 1195.55 64.6495 1195.55 Z" fill="#000000" fill-rule="evenodd" fill-opacity="1" /><path clip-path="url(#clip640)" d="M 0 0 M84.8114 1224.85 L89.6956 1224.85 L89.6956 1230.73 L84.8114 1230.73 L84.8114 1224.85 Z" fill="#000000" fill-rule="evenodd" fill-opacity="1" /><path clip-path="url(#clip640)" d="M 0 0 M100.691 1226.8 L108.33 1226.8 L108.33 1200.43 L100.02 1202.1 L100.02 1197.84 L108.283 1196.17 L112.959 1196.17 L112.959 1226.8 L120.598 1226.8 L120.598 1230.73 L100.691 1230.73 L100.691 1226.8 Z" fill="#000000" fill-rule="evenodd" fill-opacity="1" /><path clip-path="url(#clip640)" d="M 0 0 M65.0198 946.255 Q61.4087 946.255 59.58 949.819 Q57.7745 953.361 57.7745 960.491 Q57.7745 967.597 59.58 971.162 Q61.4087 974.704 65.0198 974.704 Q68.6541 974.704 70.4596 971.162 Q72.2883 967.597 72.2883 960.491 Q72.2883 953.361 70.4596 949.819 Q68.6541 946.255 65.0198 946.255 M65.0198 942.551 Q70.83 942.551 73.8855 947.157 Q76.9642 951.741 76.9642 960.491 Q76.9642 969.217 73.8855 973.824 Q70.83 978.407 65.0198 978.407 Q59.2097 978.407 56.131 973.824 Q53.0754 969.217 53.0754 960.491 Q53.0754 951.741 56.131 947.157 Q59.2097 942.551 65.0198 942.551 Z" fill="#000000" fill-rule="evenodd" fill-opacity="1" /><path clip-path="url(#clip640)" d="M 0 0 M85.1818 971.856 L90.066 971.856 L90.066 977.736 L85.1818 977.736 L85.1818 971.856 Z" fill="#000000" fill-rule="evenodd" fill-opacity="1" /><path clip-path="url(#clip640)" d="M 0 0 M104.279 973.801 L120.598 973.801 L120.598 977.736 L98.6539 977.736 L98.6539 973.801 Q101.316 971.046 105.899 966.417 Q110.506 961.764 111.686 960.421 Q113.932 957.898 114.811 956.162 Q115.714 954.403 115.714 952.713 Q115.714 949.958 113.77 948.222 Q111.848 946.486 108.746 946.486 Q106.547 946.486 104.094 947.25 Q101.663 948.014 98.8854 949.565 L98.8854 944.843 Q101.709 943.708 104.163 943.13 Q106.617 942.551 108.654 942.551 Q114.024 942.551 117.219 945.236 Q120.413 947.921 120.413 952.412 Q120.413 954.542 119.603 956.463 Q118.816 958.361 116.709 960.954 Q116.131 961.625 113.029 964.842 Q109.927 968.037 104.279 973.801 Z" fill="#000000" fill-rule="evenodd" fill-opacity="1" /><path clip-path="url(#clip640)" d="M 0 0 M64.0708 693.258 Q60.4597 693.258 58.631 696.823 Q56.8254 700.365 56.8254 707.494 Q56.8254 714.601 58.631 718.166 Q60.4597 721.707 64.0708 721.707 Q67.705 721.707 69.5105 718.166 Q71.3392 714.601 71.3392 707.494 Q71.3392 700.365 69.5105 696.823 Q67.705 693.258 64.0708 693.258 M64.0708 689.555 Q69.8809 689.555 72.9365 694.161 Q76.0151 698.745 76.0151 707.494 Q76.0151 716.221 72.9365 720.828 Q69.8809 725.411 64.0708 725.411 Q58.2606 725.411 55.1819 720.828 Q52.1264 716.221 52.1264 707.494 Q52.1264 698.745 55.1819 694.161 Q58.2606 689.555 64.0708 689.555 Z" fill="#000000" fill-rule="evenodd" fill-opacity="1" /><path clip-path="url(#clip640)" d="M 0 0 M84.2327 718.86 L89.1169 718.86 L89.1169 724.74 L84.2327 724.74 L84.2327 718.86 Z" fill="#000000" fill-rule="evenodd" fill-opacity="1" /><path clip-path="url(#clip640)" d="M 0 0 M113.469 706.106 Q116.825 706.823 118.7 709.092 Q120.598 711.36 120.598 714.693 Q120.598 719.809 117.08 722.61 Q113.561 725.411 107.08 725.411 Q104.904 725.411 102.589 724.971 Q100.297 724.555 97.8437 723.698 L97.8437 719.184 Q99.7882 720.318 102.103 720.897 Q104.418 721.476 106.941 721.476 Q111.339 721.476 113.631 719.74 Q115.945 718.004 115.945 714.693 Q115.945 711.638 113.793 709.925 Q111.663 708.189 107.844 708.189 L103.816 708.189 L103.816 704.346 L108.029 704.346 Q111.478 704.346 113.307 702.981 Q115.135 701.592 115.135 698.999 Q115.135 696.337 113.237 694.925 Q111.362 693.49 107.844 693.49 Q105.922 693.49 103.723 693.907 Q101.524 694.323 98.8854 695.203 L98.8854 691.036 Q101.547 690.295 103.862 689.925 Q106.2 689.555 108.26 689.555 Q113.584 689.555 116.686 691.985 Q119.788 694.393 119.788 698.513 Q119.788 701.383 118.145 703.374 Q116.501 705.342 113.469 706.106 Z" fill="#000000" fill-rule="evenodd" fill-opacity="1" /><path clip-path="url(#clip640)" d="M 0 0 M62.9365 440.262 Q59.3254 440.262 57.4967 443.827 Q55.6912 447.369 55.6912 454.498 Q55.6912 461.605 57.4967 465.17 Q59.3254 468.711 62.9365 468.711 Q66.5707 468.711 68.3763 465.17 Q70.205 461.605 70.205 454.498 Q70.205 447.369 68.3763 443.827 Q66.5707 440.262 62.9365 440.262 M62.9365 436.559 Q68.7467 436.559 71.8022 441.165 Q74.8809 445.748 74.8809 454.498 Q74.8809 463.225 71.8022 467.832 Q68.7467 472.415 62.9365 472.415 Q57.1264 472.415 54.0477 467.832 Q50.9921 463.225 50.9921 454.498 Q50.9921 445.748 54.0477 441.165 Q57.1264 436.559 62.9365 436.559 Z" fill="#000000" fill-rule="evenodd" fill-opacity="1" /><path clip-path="url(#clip640)" d="M 0 0 M83.0984 465.864 L87.9827 465.864 L87.9827 471.744 L83.0984 471.744 L83.0984 465.864 Z" fill="#000000" fill-rule="evenodd" fill-opacity="1" /><path clip-path="url(#clip640)" d="M 0 0 M111.015 441.258 L99.2095 459.707 L111.015 459.707 L111.015 441.258 M109.788 437.184 L115.668 437.184 L115.668 459.707 L120.598 459.707 L120.598 463.595 L115.668 463.595 L115.668 471.744 L111.015 471.744 L111.015 463.595 L95.4132 463.595 L95.4132 459.082 L109.788 437.184 Z" fill="#000000" fill-rule="evenodd" fill-opacity="1" /><path clip-path="url(#clip640)" d="M 0 0 M64.418 187.266 Q60.8069 187.266 58.9782 190.831 Q57.1726 194.372 57.1726 201.502 Q57.1726 208.609 58.9782 212.173 Q60.8069 215.715 64.418 215.715 Q68.0522 215.715 69.8578 212.173 Q71.6865 208.609 71.6865 201.502 Q71.6865 194.372 69.8578 190.831 Q68.0522 187.266 64.418 187.266 M64.418 183.562 Q70.2281 183.562 73.2837 188.169 Q76.3624 192.752 76.3624 201.502 Q76.3624 210.229 73.2837 214.835 Q70.2281 219.419 64.418 219.419 Q58.6078 219.419 55.5291 214.835 Q52.4736 210.229 52.4736 201.502 Q52.4736 192.752 55.5291 188.169 Q58.6078 183.562 64.418 183.562 Z" fill="#000000" fill-rule="evenodd" fill-opacity="1" /><path clip-path="url(#clip640)" d="M 0 0 M84.5799 212.868 L89.4641 212.868 L89.4641 218.747 L84.5799 218.747 L84.5799 212.868 Z" fill="#000000" fill-rule="evenodd" fill-opacity="1" /><path clip-path="url(#clip640)" d="M 0 0 M99.6956 184.187 L118.052 184.187 L118.052 188.123 L103.978 188.123 L103.978 196.595 Q104.996 196.247 106.015 196.085 Q107.033 195.9 108.052 195.9 Q113.839 195.9 117.219 199.072 Q120.598 202.243 120.598 207.659 Q120.598 213.238 117.126 216.34 Q113.654 219.419 107.334 219.419 Q105.159 219.419 102.89 219.048 Q100.645 218.678 98.2372 217.937 L98.2372 213.238 Q100.321 214.372 102.543 214.928 Q104.765 215.483 107.242 215.483 Q111.246 215.483 113.584 213.377 Q115.922 211.271 115.922 207.659 Q115.922 204.048 113.584 201.942 Q111.246 199.835 107.242 199.835 Q105.367 199.835 103.492 200.252 Q101.64 200.669 99.6956 201.548 L99.6956 184.187 Z" fill="#000000" fill-rule="evenodd" fill-opacity="1" /><polyline clip-path="url(#clip642)" style="stroke:#009af9; stroke-width:4; stroke-opacity:1; fill:none" points="
  218.754,1445.72 239.681,1374.84 260.609,1307.5 281.537,1243.42 302.465,1182.36 323.392,1124.09 344.32,1068.44 365.248,1015.24 386.176,964.357 407.103,915.661 
  428.031,869.038 448.959,824.386 469.887,781.614 490.814,740.638 511.742,701.381 532.67,663.774 553.598,627.754 574.525,593.261 595.453,560.242 616.381,528.646 
  637.309,498.427 658.236,469.542 679.164,441.951 700.092,415.616 721.02,390.503 741.947,366.578 762.875,343.81 783.803,322.171 804.731,301.634 825.658,282.172 
  846.586,263.762 867.514,246.381 888.442,230.007 909.369,214.619 930.297,200.199 951.225,186.726 972.152,174.185 993.08,162.558 1014.01,151.83 1034.94,141.984 
  1055.86,133.007 1076.79,124.884 1097.72,117.603 1118.65,111.15 1139.57,105.513 1160.5,100.682 1181.43,96.6435 1202.36,93.3879 1223.29,90.9046 1244.21,89.1836 
  1265.14,88.2153 1286.07,87.9903 1307,88.4998 1327.92,89.7351 1348.85,91.6878 1369.78,94.3499 1390.71,97.7136 1411.64,101.771 1432.56,106.516 1453.49,111.94 
  1474.42,118.036 1495.35,124.799 1516.27,132.221 1537.2,140.296 1558.13,149.019 1579.06,158.382 1599.98,168.381 1620.91,179.009 1641.84,190.262 1662.77,202.133 
  1683.7,214.617 1704.62,227.71 1725.55,241.406 1746.48,255.701 1767.41,270.589 1788.33,286.065 1809.26,302.126 1830.19,318.767 1851.12,335.983 1872.05,353.771 
  1892.97,372.124 1913.9,391.041 1934.83,410.516 1955.76,430.546 1976.68,451.126 1997.61,472.252 2018.54,493.922 2039.47,516.131 2060.4,538.875 2081.32,562.151 
  2102.25,585.955 2123.18,610.284 2144.11,635.134 2165.03,660.502 2185.96,686.385 2206.89,712.778 2227.82,739.68 2248.75,767.085 2269.67,794.993 2290.6,823.398 
  
  "/>
<circle clip-path="url(#clip642)" cx="1281.98" cy="87.9763" r="14" fill="#e26f46" fill-rule="evenodd" fill-opacity="1" stroke="#000000" stroke-opacity="1" stroke-width="3.2"/>
<path clip-path="url(#clip640)" d="
M1983.1 276.658 L2279.55 276.658 L2279.55 95.2176 L1983.1 95.2176  Z
  " fill="#ffffff" fill-rule="evenodd" fill-opacity="1"/>
<polyline clip-path="url(#clip640)" style="stroke:#000000; stroke-width:4; stroke-opacity:1; fill:none" points="
  1983.1,276.658 2279.55,276.658 2279.55,95.2176 1983.1,95.2176 1983.1,276.658 
  "/>
<polyline clip-path="url(#clip640)" style="stroke:#009af9; stroke-width:4; stroke-opacity:1; fill:none" points="
  2007.5,155.698 2153.92,155.698 
  "/>
<path clip-path="url(#clip640)" d="M 0 0 M2192.16 175.385 Q2190.35 180.015 2188.64 181.427 Q2186.93 182.839 2184.06 182.839 L2180.65 182.839 L2180.65 179.274 L2183.15 179.274 Q2184.91 179.274 2185.89 178.44 Q2186.86 177.607 2188.04 174.505 L2188.8 172.561 L2178.32 147.052 L2182.83 147.052 L2190.93 167.329 L2199.03 147.052 L2203.55 147.052 L2192.16 175.385 Z" fill="#000000" fill-rule="evenodd" fill-opacity="1" /><path clip-path="url(#clip640)" d="M 0 0 M2210.84 169.042 L2218.48 169.042 L2218.48 142.677 L2210.17 144.343 L2210.17 140.084 L2218.43 138.418 L2223.11 138.418 L2223.11 169.042 L2230.75 169.042 L2230.75 172.978 L2210.84 172.978 L2210.84 169.042 Z" fill="#000000" fill-rule="evenodd" fill-opacity="1" /><polyline clip-path="url(#clip640)" style="stroke:#e26f46; stroke-width:4; stroke-opacity:1; fill:none" points="
  2007.5,216.178 2153.92,216.178 
  "/>
<circle clip-path="url(#clip640)" cx="2080.71" cy="216.178" r="23" fill="#e26f46" fill-rule="evenodd" fill-opacity="1" stroke="#000000" stroke-opacity="1" stroke-width="5.12"/>
<path clip-path="url(#clip640)" d="M 0 0 M2192.16 235.865 Q2190.35 240.495 2188.64 241.907 Q2186.93 243.319 2184.06 243.319 L2180.65 243.319 L2180.65 239.754 L2183.15 239.754 Q2184.91 239.754 2185.89 238.92 Q2186.86 238.087 2188.04 234.985 L2188.8 233.041 L2178.32 207.532 L2182.83 207.532 L2190.93 227.809 L2199.03 207.532 L2203.55 207.532 L2192.16 235.865 Z" fill="#000000" fill-rule="evenodd" fill-opacity="1" /><path clip-path="url(#clip640)" d="M 0 0 M2214.06 229.522 L2230.38 229.522 L2230.38 233.458 L2208.43 233.458 L2208.43 229.522 Q2211.09 226.768 2215.68 222.138 Q2220.28 217.485 2221.46 216.143 Q2223.71 213.62 2224.59 211.884 Q2225.49 210.124 2225.49 208.435 Q2225.49 205.68 2223.55 203.944 Q2221.63 202.208 2218.52 202.208 Q2216.33 202.208 2213.87 202.972 Q2211.44 203.735 2208.66 205.286 L2208.66 200.564 Q2211.49 199.43 2213.94 198.851 Q2216.4 198.273 2218.43 198.273 Q2223.8 198.273 2227 200.958 Q2230.19 203.643 2230.19 208.134 Q2230.19 210.263 2229.38 212.185 Q2228.59 214.083 2226.49 216.675 Q2225.91 217.347 2222.81 220.564 Q2219.71 223.759 2214.06 229.522 Z" fill="#000000" fill-rule="evenodd" fill-opacity="1" /></svg>
