<?xml version="1.0" encoding="utf-8"?>
<svg xmlns="http://www.w3.org/2000/svg" xmlns:xlink="http://www.w3.org/1999/xlink" width="600" height="400" viewBox="0 0 2400 1600">
<defs>
  <clipPath id="clip900">
    <rect x="0" y="0" width="2400" height="1600"/>
  </clipPath>
</defs>
<path clip-path="url(#clip900)" d="
M0 1600 L2400 1600 L2400 0 L0 0  Z
  " fill="#ffffff" fill-rule="evenodd" fill-opacity="1"/>
<defs>
  <clipPath id="clip901">
    <rect x="480" y="0" width="1681" height="1600"/>
  </clipPath>
</defs>
<path clip-path="url(#clip900)" d="
M186.274 1486.45 L2352.76 1486.45 L2352.76 47.2441 L186.274 47.2441  Z
  " fill="#ffffff" fill-rule="evenodd" fill-opacity="1"/>
<defs>
  <clipPath id="clip902">
    <rect x="186" y="47" width="2167" height="1440"/>
  </clipPath>
</defs>
<polyline clip-path="url(#clip902)" style="stroke:#000000; stroke-linecap:butt; stroke-linejoin:round; stroke-width:2; stroke-opacity:0.1; fill:none" points="
  241.602,1486.45 241.602,47.2441 
  "/>
<polyline clip-path="url(#clip902)" style="stroke:#000000; stroke-linecap:butt; stroke-linejoin:round; stroke-width:2; stroke-opacity:0.1; fill:none" points="
  758.357,1486.45 758.357,47.2441 
  "/>
<polyline clip-path="url(#clip902)" style="stroke:#000000; stroke-linecap:butt; stroke-linejoin:round; stroke-width:2; stroke-opacity:0.1; fill:none" points="
  1275.11,1486.45 1275.11,47.2441 
  "/>
<polyline clip-path="url(#clip902)" style="stroke:#000000; stroke-linecap:butt; stroke-linejoin:round; stroke-width:2; stroke-opacity:0.1; fill:none" points="
  1791.87,1486.45 1791.87,47.2441 
  "/>
<polyline clip-path="url(#clip902)" style="stroke:#000000; stroke-linecap:butt; stroke-linejoin:round; stroke-width:2; stroke-opacity:0.1; fill:none" points="
  2308.62,1486.45 2308.62,47.2441 
  "/>
<polyline clip-path="url(#clip900)" style="stroke:#000000; stroke-linecap:butt; stroke-linejoin:round; stroke-width:4; stroke-opacity:1; fill:none" points="
  186.274,1486.45 2352.76,1486.45 
  "/>
<polyline clip-path="url(#clip900)" style="stroke:#000000; stroke-linecap:butt; stroke-linejoin:round; stroke-width:4; stroke-opacity:1; fill:none" points="
  241.602,1486.45 241.602,1467.55 
  "/>
<polyline clip-path="url(#clip900)" style="stroke:#000000; stroke-linecap:butt; stroke-linejoin:round; stroke-width:4; stroke-opacity:1; fill:none" points="
  758.357,1486.45 758.357,1467.55 
  "/>
<polyline clip-path="url(#clip900)" style="stroke:#000000; stroke-linecap:butt; stroke-linejoin:round; stroke-width:4; stroke-opacity:1; fill:none" points="
  1275.11,1486.45 1275.11,1467.55 
  "/>
<polyline clip-path="url(#clip900)" style="stroke:#000000; stroke-linecap:butt; stroke-linejoin:round; stroke-width:4; stroke-opacity:1; fill:none" points="
  1791.87,1486.45 1791.87,1467.55 
  "/>
<polyline clip-path="url(#clip900)" style="stroke:#000000; stroke-linecap:butt; stroke-linejoin:round; stroke-width:4; stroke-opacity:1; fill:none" points="
  2308.62,1486.45 2308.62,1467.55 
  "/>
<path clip-path="url(#clip900)" d="M203.905 1517.37 Q200.294 1517.37 198.465 1520.93 Q196.66 1524.47 196.66 1531.6 Q196.66 1538.71 198.465 1542.27 Q200.294 1545.82 203.905 1545.82 Q207.539 1545.82 209.345 1542.27 Q211.173 1538.71 211.173 1531.6 Q211.173 1524.47 209.345 1520.93 Q207.539 1517.37 203.905 1517.37 M203.905 1513.66 Q209.715 1513.66 212.771 1518.27 Q215.849 1522.85 215.849 1531.6 Q215.849 1540.33 212.771 1544.94 Q209.715 1549.52 203.905 1549.52 Q198.095 1549.52 195.016 1544.94 Q191.961 1540.33 191.961 1531.6 Q191.961 1522.85 195.016 1518.27 Q198.095 1513.66 203.905 1513.66 Z" fill="#000000" fill-rule="evenodd" fill-opacity="1" /><path clip-path="url(#clip900)" d="M224.067 1542.97 L228.951 1542.97 L228.951 1548.85 L224.067 1548.85 L224.067 1542.97 Z" fill="#000000" fill-rule="evenodd" fill-opacity="1" /><path clip-path="url(#clip900)" d="M249.136 1517.37 Q245.525 1517.37 243.696 1520.93 Q241.891 1524.47 241.891 1531.6 Q241.891 1538.71 243.696 1542.27 Q245.525 1545.82 249.136 1545.82 Q252.77 1545.82 254.576 1542.27 Q256.405 1538.71 256.405 1531.6 Q256.405 1524.47 254.576 1520.93 Q252.77 1517.37 249.136 1517.37 M249.136 1513.66 Q254.946 1513.66 258.002 1518.27 Q261.081 1522.85 261.081 1531.6 Q261.081 1540.33 258.002 1544.94 Q254.946 1549.52 249.136 1549.52 Q243.326 1549.52 240.247 1544.94 Q237.192 1540.33 237.192 1531.6 Q237.192 1522.85 240.247 1518.27 Q243.326 1513.66 249.136 1513.66 Z" fill="#000000" fill-rule="evenodd" fill-opacity="1" /><path clip-path="url(#clip900)" d="M279.298 1517.37 Q275.687 1517.37 273.858 1520.93 Q272.053 1524.47 272.053 1531.6 Q272.053 1538.71 273.858 1542.27 Q275.687 1545.82 279.298 1545.82 Q282.932 1545.82 284.738 1542.27 Q286.567 1538.71 286.567 1531.6 Q286.567 1524.47 284.738 1520.93 Q282.932 1517.37 279.298 1517.37 M279.298 1513.66 Q285.108 1513.66 288.164 1518.27 Q291.242 1522.85 291.242 1531.6 Q291.242 1540.33 288.164 1544.94 Q285.108 1549.52 279.298 1549.52 Q273.488 1549.52 270.409 1544.94 Q267.354 1540.33 267.354 1531.6 Q267.354 1522.85 270.409 1518.27 Q273.488 1513.66 279.298 1513.66 Z" fill="#000000" fill-rule="evenodd" fill-opacity="1" /><path clip-path="url(#clip900)" d="M721.158 1517.37 Q717.547 1517.37 715.718 1520.93 Q713.913 1524.47 713.913 1531.6 Q713.913 1538.71 715.718 1542.27 Q717.547 1545.82 721.158 1545.82 Q724.792 1545.82 726.598 1542.27 Q728.426 1538.71 728.426 1531.6 Q728.426 1524.47 726.598 1520.93 Q724.792 1517.37 721.158 1517.37 M721.158 1513.66 Q726.968 1513.66 730.024 1518.27 Q733.102 1522.85 733.102 1531.6 Q733.102 1540.33 730.024 1544.94 Q726.968 1549.52 721.158 1549.52 Q715.348 1549.52 712.269 1544.94 Q709.214 1540.33 709.214 1531.6 Q709.214 1522.85 712.269 1518.27 Q715.348 1513.66 721.158 1513.66 Z" fill="#000000" fill-rule="evenodd" fill-opacity="1" /><path clip-path="url(#clip900)" d="M741.32 1542.97 L746.204 1542.97 L746.204 1548.85 L741.32 1548.85 L741.32 1542.97 Z" fill="#000000" fill-rule="evenodd" fill-opacity="1" /><path clip-path="url(#clip900)" d="M760.417 1544.91 L776.736 1544.91 L776.736 1548.85 L754.792 1548.85 L754.792 1544.91 Q757.454 1542.16 762.037 1537.53 Q766.644 1532.88 767.824 1531.53 Q770.07 1529.01 770.949 1527.27 Q771.852 1525.51 771.852 1523.82 Q771.852 1521.07 769.908 1519.33 Q767.986 1517.6 764.885 1517.6 Q762.685 1517.6 760.232 1518.36 Q757.801 1519.13 755.023 1520.68 L755.023 1515.95 Q757.848 1514.82 760.301 1514.24 Q762.755 1513.66 764.792 1513.66 Q770.162 1513.66 773.357 1516.35 Q776.551 1519.03 776.551 1523.52 Q776.551 1525.65 775.741 1527.57 Q774.954 1529.47 772.847 1532.07 Q772.269 1532.74 769.167 1535.95 Q766.065 1539.15 760.417 1544.91 Z" fill="#000000" fill-rule="evenodd" fill-opacity="1" /><path clip-path="url(#clip900)" d="M786.597 1514.29 L804.954 1514.29 L804.954 1518.22 L790.88 1518.22 L790.88 1526.7 Q791.898 1526.35 792.917 1526.19 Q793.935 1526 794.954 1526 Q800.741 1526 804.12 1529.17 Q807.5 1532.34 807.5 1537.76 Q807.5 1543.34 804.028 1546.44 Q800.556 1549.52 794.236 1549.52 Q792.06 1549.52 789.792 1549.15 Q787.546 1548.78 785.139 1548.04 L785.139 1543.34 Q787.222 1544.47 789.445 1545.03 Q791.667 1545.58 794.144 1545.58 Q798.148 1545.58 800.486 1543.48 Q802.824 1541.37 802.824 1537.76 Q802.824 1534.15 800.486 1532.04 Q798.148 1529.94 794.144 1529.94 Q792.269 1529.94 790.394 1530.35 Q788.542 1530.77 786.597 1531.65 L786.597 1514.29 Z" fill="#000000" fill-rule="evenodd" fill-opacity="1" /><path clip-path="url(#clip900)" d="M1237.42 1517.37 Q1233.8 1517.37 1231.98 1520.93 Q1230.17 1524.47 1230.17 1531.6 Q1230.17 1538.71 1231.98 1542.27 Q1233.8 1545.82 1237.42 1545.82 Q1241.05 1545.82 1242.86 1542.27 Q1244.68 1538.71 1244.68 1531.6 Q1244.68 1524.47 1242.86 1520.93 Q1241.05 1517.37 1237.42 1517.37 M1237.42 1513.66 Q1243.23 1513.66 1246.28 1518.27 Q1249.36 1522.85 1249.36 1531.6 Q1249.36 1540.33 1246.28 1544.94 Q1243.23 1549.52 1237.42 1549.52 Q1231.61 1549.52 1228.53 1544.94 Q1225.47 1540.33 1225.47 1531.6 Q1225.47 1522.85 1228.53 1518.27 Q1231.61 1513.66 1237.42 1513.66 Z" fill="#000000" fill-rule="evenodd" fill-opacity="1" /><path clip-path="url(#clip900)" d="M1257.58 1542.97 L1262.46 1542.97 L1262.46 1548.85 L1257.58 1548.85 L1257.58 1542.97 Z" fill="#000000" fill-rule="evenodd" fill-opacity="1" /><path clip-path="url(#clip900)" d="M1272.69 1514.29 L1291.05 1514.29 L1291.05 1518.22 L1276.98 1518.22 L1276.98 1526.7 Q1277.99 1526.35 1279.01 1526.19 Q1280.03 1526 1281.05 1526 Q1286.84 1526 1290.22 1529.17 Q1293.6 1532.34 1293.6 1537.76 Q1293.6 1543.34 1290.12 1546.44 Q1286.65 1549.52 1280.33 1549.52 Q1278.16 1549.52 1275.89 1549.15 Q1273.64 1548.78 1271.23 1548.04 L1271.23 1543.34 Q1273.32 1544.47 1275.54 1545.03 Q1277.76 1545.58 1280.24 1545.58 Q1284.24 1545.58 1286.58 1543.48 Q1288.92 1541.37 1288.92 1537.76 Q1288.92 1534.15 1286.58 1532.04 Q1284.24 1529.94 1280.24 1529.94 Q1278.36 1529.94 1276.49 1530.35 Q1274.64 1530.77 1272.69 1531.65 L1272.69 1514.29 Z" fill="#000000" fill-rule="evenodd" fill-opacity="1" /><path clip-path="url(#clip900)" d="M1312.81 1517.37 Q1309.2 1517.37 1307.37 1520.93 Q1305.56 1524.47 1305.56 1531.6 Q1305.56 1538.71 1307.37 1542.27 Q1309.2 1545.82 1312.81 1545.82 Q1316.44 1545.82 1318.25 1542.27 Q1320.08 1538.71 1320.08 1531.6 Q1320.08 1524.47 1318.25 1520.93 Q1316.44 1517.37 1312.81 1517.37 M1312.81 1513.66 Q1318.62 1513.66 1321.67 1518.27 Q1324.75 1522.85 1324.75 1531.6 Q1324.75 1540.33 1321.67 1544.94 Q1318.62 1549.52 1312.81 1549.52 Q1307 1549.52 1303.92 1544.94 Q1300.86 1540.33 1300.86 1531.6 Q1300.86 1522.85 1303.92 1518.27 Q1307 1513.66 1312.81 1513.66 Z" fill="#000000" fill-rule="evenodd" fill-opacity="1" /><path clip-path="url(#clip900)" d="M1754.67 1517.37 Q1751.06 1517.37 1749.23 1520.93 Q1747.42 1524.47 1747.42 1531.6 Q1747.42 1538.71 1749.23 1542.27 Q1751.06 1545.82 1754.67 1545.82 Q1758.3 1545.82 1760.11 1542.27 Q1761.94 1538.71 1761.94 1531.6 Q1761.94 1524.47 1760.11 1520.93 Q1758.3 1517.37 1754.67 1517.37 M1754.67 1513.66 Q1760.48 1513.66 1763.53 1518.27 Q1766.61 1522.85 1766.61 1531.6 Q1766.61 1540.33 1763.53 1544.94 Q1760.48 1549.52 1754.67 1549.52 Q1748.86 1549.52 1745.78 1544.94 Q1742.72 1540.33 1742.72 1531.6 Q1742.72 1522.85 1745.78 1518.27 Q1748.86 1513.66 1754.67 1513.66 Z" fill="#000000" fill-rule="evenodd" fill-opacity="1" /><path clip-path="url(#clip900)" d="M1774.83 1542.97 L1779.71 1542.97 L1779.71 1548.85 L1774.83 1548.85 L1774.83 1542.97 Z" fill="#000000" fill-rule="evenodd" fill-opacity="1" /><path clip-path="url(#clip900)" d="M1788.72 1514.29 L1810.94 1514.29 L1810.94 1516.28 L1798.4 1548.85 L1793.51 1548.85 L1805.32 1518.22 L1788.72 1518.22 L1788.72 1514.29 Z" fill="#000000" fill-rule="evenodd" fill-opacity="1" /><path clip-path="url(#clip900)" d="M1820.11 1514.29 L1838.46 1514.29 L1838.46 1518.22 L1824.39 1518.22 L1824.39 1526.7 Q1825.41 1526.35 1826.43 1526.19 Q1827.45 1526 1828.46 1526 Q1834.25 1526 1837.63 1529.17 Q1841.01 1532.34 1841.01 1537.76 Q1841.01 1543.34 1837.54 1546.44 Q1834.07 1549.52 1827.75 1549.52 Q1825.57 1549.52 1823.3 1549.15 Q1821.06 1548.78 1818.65 1548.04 L1818.65 1543.34 Q1820.73 1544.47 1822.96 1545.03 Q1825.18 1545.58 1827.65 1545.58 Q1831.66 1545.58 1834 1543.48 Q1836.33 1541.37 1836.33 1537.76 Q1836.33 1534.15 1834 1532.04 Q1831.66 1529.94 1827.65 1529.94 Q1825.78 1529.94 1823.9 1530.35 Q1822.05 1530.77 1820.11 1531.65 L1820.11 1514.29 Z" fill="#000000" fill-rule="evenodd" fill-opacity="1" /><path clip-path="url(#clip900)" d="M2260.69 1544.91 L2268.33 1544.91 L2268.33 1518.55 L2260.02 1520.21 L2260.02 1515.95 L2268.29 1514.29 L2272.96 1514.29 L2272.96 1544.91 L2280.6 1544.91 L2280.6 1548.85 L2260.69 1548.85 L2260.69 1544.91 Z" fill="#000000" fill-rule="evenodd" fill-opacity="1" /><path clip-path="url(#clip900)" d="M2290.05 1542.97 L2294.93 1542.97 L2294.93 1548.85 L2290.05 1548.85 L2290.05 1542.97 Z" fill="#000000" fill-rule="evenodd" fill-opacity="1" /><path clip-path="url(#clip900)" d="M2315.12 1517.37 Q2311.5 1517.37 2309.68 1520.93 Q2307.87 1524.47 2307.87 1531.6 Q2307.87 1538.71 2309.68 1542.27 Q2311.5 1545.82 2315.12 1545.82 Q2318.75 1545.82 2320.56 1542.27 Q2322.38 1538.71 2322.38 1531.6 Q2322.38 1524.47 2320.56 1520.93 Q2318.75 1517.37 2315.12 1517.37 M2315.12 1513.66 Q2320.93 1513.66 2323.98 1518.27 Q2327.06 1522.85 2327.06 1531.6 Q2327.06 1540.33 2323.98 1544.94 Q2320.93 1549.52 2315.12 1549.52 Q2309.31 1549.52 2306.23 1544.94 Q2303.17 1540.33 2303.17 1531.6 Q2303.17 1522.85 2306.23 1518.27 Q2309.31 1513.66 2315.12 1513.66 Z" fill="#000000" fill-rule="evenodd" fill-opacity="1" /><path clip-path="url(#clip900)" d="M2345.28 1517.37 Q2341.67 1517.37 2339.84 1520.93 Q2338.03 1524.47 2338.03 1531.6 Q2338.03 1538.71 2339.84 1542.27 Q2341.67 1545.82 2345.28 1545.82 Q2348.91 1545.82 2350.72 1542.27 Q2352.55 1538.71 2352.55 1531.6 Q2352.55 1524.47 2350.72 1520.93 Q2348.91 1517.37 2345.28 1517.37 M2345.28 1513.66 Q2351.09 1513.66 2354.14 1518.27 Q2357.22 1522.85 2357.22 1531.6 Q2357.22 1540.33 2354.14 1544.94 Q2351.09 1549.52 2345.28 1549.52 Q2339.47 1549.52 2336.39 1544.94 Q2333.33 1540.33 2333.33 1531.6 Q2333.33 1522.85 2336.39 1518.27 Q2339.47 1513.66 2345.28 1513.66 Z" fill="#000000" fill-rule="evenodd" fill-opacity="1" /><polyline clip-path="url(#clip902)" style="stroke:#000000; stroke-linecap:butt; stroke-linejoin:round; stroke-width:2; stroke-opacity:0.1; fill:none" points="
  186.274,1449.91 2352.76,1449.91 
  "/>
<polyline clip-path="url(#clip902)" style="stroke:#000000; stroke-linecap:butt; stroke-linejoin:round; stroke-width:2; stroke-opacity:0.1; fill:none" points="
  186.274,1105.19 2352.76,1105.19 
  "/>
<polyline clip-path="url(#clip902)" style="stroke:#000000; stroke-linecap:butt; stroke-linejoin:round; stroke-width:2; stroke-opacity:0.1; fill:none" points="
  186.274,760.48 2352.76,760.48 
  "/>
<polyline clip-path="url(#clip902)" style="stroke:#000000; stroke-linecap:butt; stroke-linejoin:round; stroke-width:2; stroke-opacity:0.1; fill:none" points="
  186.274,415.766 2352.76,415.766 
  "/>
<polyline clip-path="url(#clip902)" style="stroke:#000000; stroke-linecap:butt; stroke-linejoin:round; stroke-width:2; stroke-opacity:0.1; fill:none" points="
  186.274,71.0532 2352.76,71.0532 
  "/>
<polyline clip-path="url(#clip900)" style="stroke:#000000; stroke-linecap:butt; stroke-linejoin:round; stroke-width:4; stroke-opacity:1; fill:none" points="
  186.274,1486.45 186.274,47.2441 
  "/>
<polyline clip-path="url(#clip900)" style="stroke:#000000; stroke-linecap:butt; stroke-linejoin:round; stroke-width:4; stroke-opacity:1; fill:none" points="
  186.274,1449.91 205.172,1449.91 
  "/>
<polyline clip-path="url(#clip900)" style="stroke:#000000; stroke-linecap:butt; stroke-linejoin:round; stroke-width:4; stroke-opacity:1; fill:none" points="
  186.274,1105.19 205.172,1105.19 
  "/>
<polyline clip-path="url(#clip900)" style="stroke:#000000; stroke-linecap:butt; stroke-linejoin:round; stroke-width:4; stroke-opacity:1; fill:none" points="
  186.274,760.48 205.172,760.48 
  "/>
<polyline clip-path="url(#clip900)" style="stroke:#000000; stroke-linecap:butt; stroke-linejoin:round; stroke-width:4; stroke-opacity:1; fill:none" points="
  186.274,415.766 205.172,415.766 
  "/>
<polyline clip-path="url(#clip900)" style="stroke:#000000; stroke-linecap:butt; stroke-linejoin:round; stroke-width:4; stroke-opacity:1; fill:none" points="
  186.274,71.0532 205.172,71.0532 
  "/>
<path clip-path="url(#clip900)" d="M62.9365 1435.7 Q59.3254 1435.7 57.4967 1439.27 Q55.6912 1442.81 55.6912 1449.94 Q55.6912 1457.05 57.4967 1460.61 Q59.3254 1464.15 62.9365 1464.15 Q66.5707 1464.15 68.3763 1460.61 Q70.205 1457.05 70.205 1449.94 Q70.205 1442.81 68.3763 1439.27 Q66.5707 1435.7 62.9365 1435.7 M62.9365 1432 Q68.7467 1432 71.8022 1436.61 Q74.8809 1441.19 74.8809 1449.94 Q74.8809 1458.67 71.8022 1463.27 Q68.7467 1467.86 62.9365 1467.86 Q57.1264 1467.86 54.0477 1463.27 Q50.9921 1458.67 50.9921 1449.94 Q50.9921 1441.19 54.0477 1436.61 Q57.1264 1432 62.9365 1432 Z" fill="#000000" fill-rule="evenodd" fill-opacity="1" /><path clip-path="url(#clip900)" d="M83.0984 1461.31 L87.9827 1461.31 L87.9827 1467.19 L83.0984 1467.19 L83.0984 1461.31 Z" fill="#000000" fill-rule="evenodd" fill-opacity="1" /><path clip-path="url(#clip900)" d="M108.168 1435.7 Q104.557 1435.7 102.728 1439.27 Q100.922 1442.81 100.922 1449.94 Q100.922 1457.05 102.728 1460.61 Q104.557 1464.15 108.168 1464.15 Q111.802 1464.15 113.608 1460.61 Q115.436 1457.05 115.436 1449.94 Q115.436 1442.81 113.608 1439.27 Q111.802 1435.7 108.168 1435.7 M108.168 1432 Q113.978 1432 117.033 1436.61 Q120.112 1441.19 120.112 1449.94 Q120.112 1458.67 117.033 1463.27 Q113.978 1467.86 108.168 1467.86 Q102.358 1467.86 99.2789 1463.27 Q96.2234 1458.67 96.2234 1449.94 Q96.2234 1441.19 99.2789 1436.61 Q102.358 1432 108.168 1432 Z" fill="#000000" fill-rule="evenodd" fill-opacity="1" /><path clip-path="url(#clip900)" d="M138.33 1435.7 Q134.719 1435.7 132.89 1439.27 Q131.084 1442.81 131.084 1449.94 Q131.084 1457.05 132.89 1460.61 Q134.719 1464.15 138.33 1464.15 Q141.964 1464.15 143.769 1460.61 Q145.598 1457.05 145.598 1449.94 Q145.598 1442.81 143.769 1439.27 Q141.964 1435.7 138.33 1435.7 M138.33 1432 Q144.14 1432 147.195 1436.61 Q150.274 1441.19 150.274 1449.94 Q150.274 1458.67 147.195 1463.27 Q144.14 1467.86 138.33 1467.86 Q132.519 1467.86 129.441 1463.27 Q126.385 1458.67 126.385 1449.94 Q126.385 1441.19 129.441 1436.61 Q132.519 1432 138.33 1432 Z" fill="#000000" fill-rule="evenodd" fill-opacity="1" /><path clip-path="url(#clip900)" d="M63.9319 1090.99 Q60.3208 1090.99 58.4921 1094.56 Q56.6865 1098.1 56.6865 1105.23 Q56.6865 1112.33 58.4921 1115.9 Q60.3208 1119.44 63.9319 1119.44 Q67.5661 1119.44 69.3717 1115.9 Q71.2004 1112.33 71.2004 1105.23 Q71.2004 1098.1 69.3717 1094.56 Q67.5661 1090.99 63.9319 1090.99 M63.9319 1087.29 Q69.742 1087.29 72.7976 1091.89 Q75.8763 1096.48 75.8763 1105.23 Q75.8763 1113.95 72.7976 1118.56 Q69.742 1123.14 63.9319 1123.14 Q58.1217 1123.14 55.043 1118.56 Q51.9875 1113.95 51.9875 1105.23 Q51.9875 1096.48 55.043 1091.89 Q58.1217 1087.29 63.9319 1087.29 Z" fill="#000000" fill-rule="evenodd" fill-opacity="1" /><path clip-path="url(#clip900)" d="M84.0938 1116.59 L88.978 1116.59 L88.978 1122.47 L84.0938 1122.47 L84.0938 1116.59 Z" fill="#000000" fill-rule="evenodd" fill-opacity="1" /><path clip-path="url(#clip900)" d="M103.191 1118.54 L119.51 1118.54 L119.51 1122.47 L97.566 1122.47 L97.566 1118.54 Q100.228 1115.78 104.811 1111.15 Q109.418 1106.5 110.598 1105.16 Q112.844 1102.64 113.723 1100.9 Q114.626 1099.14 114.626 1097.45 Q114.626 1094.7 112.682 1092.96 Q110.76 1091.22 107.658 1091.22 Q105.459 1091.22 103.006 1091.99 Q100.575 1092.75 97.7974 1094.3 L97.7974 1089.58 Q100.621 1088.45 103.075 1087.87 Q105.529 1087.29 107.566 1087.29 Q112.936 1087.29 116.131 1089.97 Q119.325 1092.66 119.325 1097.15 Q119.325 1099.28 118.515 1101.2 Q117.728 1103.1 115.621 1105.69 Q115.043 1106.36 111.941 1109.58 Q108.839 1112.77 103.191 1118.54 Z" fill="#000000" fill-rule="evenodd" fill-opacity="1" /><path clip-path="url(#clip900)" d="M129.371 1087.91 L147.728 1087.91 L147.728 1091.85 L133.654 1091.85 L133.654 1100.32 Q134.672 1099.97 135.691 1099.81 Q136.709 1099.63 137.728 1099.63 Q143.515 1099.63 146.894 1102.8 Q150.274 1105.97 150.274 1111.39 Q150.274 1116.96 146.802 1120.07 Q143.33 1123.14 137.01 1123.14 Q134.834 1123.14 132.566 1122.77 Q130.32 1122.4 127.913 1121.66 L127.913 1116.96 Q129.996 1118.1 132.219 1118.65 Q134.441 1119.21 136.918 1119.21 Q140.922 1119.21 143.26 1117.1 Q145.598 1115 145.598 1111.39 Q145.598 1107.77 143.26 1105.67 Q140.922 1103.56 136.918 1103.56 Q135.043 1103.56 133.168 1103.98 Q131.316 1104.39 129.371 1105.27 L129.371 1087.91 Z" fill="#000000" fill-rule="evenodd" fill-opacity="1" /><path clip-path="url(#clip900)" d="M62.9365 746.278 Q59.3254 746.278 57.4967 749.843 Q55.6912 753.385 55.6912 760.514 Q55.6912 767.621 57.4967 771.186 Q59.3254 774.727 62.9365 774.727 Q66.5707 774.727 68.3763 771.186 Q70.205 767.621 70.205 760.514 Q70.205 753.385 68.3763 749.843 Q66.5707 746.278 62.9365 746.278 M62.9365 742.575 Q68.7467 742.575 71.8022 747.181 Q74.8809 751.765 74.8809 760.514 Q74.8809 769.241 71.8022 773.848 Q68.7467 778.431 62.9365 778.431 Q57.1264 778.431 54.0477 773.848 Q50.9921 769.241 50.9921 760.514 Q50.9921 751.765 54.0477 747.181 Q57.1264 742.575 62.9365 742.575 Z" fill="#000000" fill-rule="evenodd" fill-opacity="1" /><path clip-path="url(#clip900)" d="M83.0984 771.88 L87.9827 771.88 L87.9827 777.76 L83.0984 777.76 L83.0984 771.88 Z" fill="#000000" fill-rule="evenodd" fill-opacity="1" /><path clip-path="url(#clip900)" d="M98.2141 743.2 L116.57 743.2 L116.57 747.135 L102.496 747.135 L102.496 755.607 Q103.515 755.26 104.534 755.098 Q105.552 754.913 106.571 754.913 Q112.358 754.913 115.737 758.084 Q119.117 761.255 119.117 766.672 Q119.117 772.251 115.645 775.352 Q112.172 778.431 105.853 778.431 Q103.677 778.431 101.409 778.061 Q99.1632 777.69 96.7558 776.95 L96.7558 772.251 Q98.8391 773.385 101.061 773.94 Q103.284 774.496 105.76 774.496 Q109.765 774.496 112.103 772.389 Q114.441 770.283 114.441 766.672 Q114.441 763.061 112.103 760.954 Q109.765 758.848 105.76 758.848 Q103.885 758.848 102.01 759.264 Q100.159 759.681 98.2141 760.561 L98.2141 743.2 Z" fill="#000000" fill-rule="evenodd" fill-opacity="1" /><path clip-path="url(#clip900)" d="M138.33 746.278 Q134.719 746.278 132.89 749.843 Q131.084 753.385 131.084 760.514 Q131.084 767.621 132.89 771.186 Q134.719 774.727 138.33 774.727 Q141.964 774.727 143.769 771.186 Q145.598 767.621 145.598 760.514 Q145.598 753.385 143.769 749.843 Q141.964 746.278 138.33 746.278 M138.33 742.575 Q144.14 742.575 147.195 747.181 Q150.274 751.765 150.274 760.514 Q150.274 769.241 147.195 773.848 Q144.14 778.431 138.33 778.431 Q132.519 778.431 129.441 773.848 Q126.385 769.241 126.385 760.514 Q126.385 751.765 129.441 747.181 Q132.519 742.575 138.33 742.575 Z" fill="#000000" fill-rule="evenodd" fill-opacity="1" /><path clip-path="url(#clip900)" d="M63.9319 401.565 Q60.3208 401.565 58.4921 405.13 Q56.6865 408.672 56.6865 415.801 Q56.6865 422.908 58.4921 426.472 Q60.3208 430.014 63.9319 430.014 Q67.5661 430.014 69.3717 426.472 Q71.2004 422.908 71.2004 415.801 Q71.2004 408.672 69.3717 405.13 Q67.5661 401.565 63.9319 401.565 M63.9319 397.861 Q69.742 397.861 72.7976 402.468 Q75.8763 407.051 75.8763 415.801 Q75.8763 424.528 72.7976 429.134 Q69.742 433.718 63.9319 433.718 Q58.1217 433.718 55.043 429.134 Q51.9875 424.528 51.9875 415.801 Q51.9875 407.051 55.043 402.468 Q58.1217 397.861 63.9319 397.861 Z" fill="#000000" fill-rule="evenodd" fill-opacity="1" /><path clip-path="url(#clip900)" d="M84.0938 427.167 L88.978 427.167 L88.978 433.046 L84.0938 433.046 L84.0938 427.167 Z" fill="#000000" fill-rule="evenodd" fill-opacity="1" /><path clip-path="url(#clip900)" d="M97.9826 398.486 L120.205 398.486 L120.205 400.477 L107.658 433.046 L102.774 433.046 L114.58 402.422 L97.9826 402.422 L97.9826 398.486 Z" fill="#000000" fill-rule="evenodd" fill-opacity="1" /><path clip-path="url(#clip900)" d="M129.371 398.486 L147.728 398.486 L147.728 402.422 L133.654 402.422 L133.654 410.894 Q134.672 410.547 135.691 410.385 Q136.709 410.199 137.728 410.199 Q143.515 410.199 146.894 413.371 Q150.274 416.542 150.274 421.959 Q150.274 427.537 146.802 430.639 Q143.33 433.718 137.01 433.718 Q134.834 433.718 132.566 433.347 Q130.32 432.977 127.913 432.236 L127.913 427.537 Q129.996 428.672 132.219 429.227 Q134.441 429.783 136.918 429.783 Q140.922 429.783 143.26 427.676 Q145.598 425.57 145.598 421.959 Q145.598 418.347 143.26 416.241 Q140.922 414.135 136.918 414.135 Q135.043 414.135 133.168 414.551 Q131.316 414.968 129.371 415.848 L129.371 398.486 Z" fill="#000000" fill-rule="evenodd" fill-opacity="1" /><path clip-path="url(#clip900)" d="M53.7467 84.398 L61.3856 84.398 L61.3856 58.0324 L53.0754 59.6991 L53.0754 55.4399 L61.3393 53.7732 L66.0152 53.7732 L66.0152 84.398 L73.654 84.398 L73.654 88.3332 L53.7467 88.3332 L53.7467 84.398 Z" fill="#000000" fill-rule="evenodd" fill-opacity="1" /><path clip-path="url(#clip900)" d="M83.0984 82.4536 L87.9827 82.4536 L87.9827 88.3332 L83.0984 88.3332 L83.0984 82.4536 Z" fill="#000000" fill-rule="evenodd" fill-opacity="1" /><path clip-path="url(#clip900)" d="M108.168 56.8519 Q104.557 56.8519 102.728 60.4167 Q100.922 63.9583 100.922 71.0879 Q100.922 78.1944 102.728 81.7592 Q104.557 85.3008 108.168 85.3008 Q111.802 85.3008 113.608 81.7592 Q115.436 78.1944 115.436 71.0879 Q115.436 63.9583 113.608 60.4167 Q111.802 56.8519 108.168 56.8519 M108.168 53.1482 Q113.978 53.1482 117.033 57.7547 Q120.112 62.338 120.112 71.0879 Q120.112 79.8147 117.033 84.4212 Q113.978 89.0045 108.168 89.0045 Q102.358 89.0045 99.2789 84.4212 Q96.2234 79.8147 96.2234 71.0879 Q96.2234 62.338 99.2789 57.7547 Q102.358 53.1482 108.168 53.1482 Z" fill="#000000" fill-rule="evenodd" fill-opacity="1" /><path clip-path="url(#clip900)" d="M138.33 56.8519 Q134.719 56.8519 132.89 60.4167 Q131.084 63.9583 131.084 71.0879 Q131.084 78.1944 132.89 81.7592 Q134.719 85.3008 138.33 85.3008 Q141.964 85.3008 143.769 81.7592 Q145.598 78.1944 145.598 71.0879 Q145.598 63.9583 143.769 60.4167 Q141.964 56.8519 138.33 56.8519 M138.33 53.1482 Q144.14 53.1482 147.195 57.7547 Q150.274 62.338 150.274 71.0879 Q150.274 79.8147 147.195 84.4212 Q144.14 89.0045 138.33 89.0045 Q132.519 89.0045 129.441 84.4212 Q126.385 79.8147 126.385 71.0879 Q126.385 62.338 129.441 57.7547 Q132.519 53.1482 138.33 53.1482 Z" fill="#000000" fill-rule="evenodd" fill-opacity="1" /><circle clip-path="url(#clip902)" cx="1541.29" cy="381.683" r="14" fill="#009af9" fill-rule="evenodd" fill-opacity="1" stroke="#000000" stroke-opacity="1" stroke-width="3.2"/>
<circle clip-path="url(#clip902)" cx="1994.86" cy="1274.82" r="14" fill="#009af9" fill-rule="evenodd" fill-opacity="1" stroke="#000000" stroke-opacity="1" stroke-width="3.2"/>
<circle clip-path="url(#clip902)" cx="1021.02" cy="551.044" r="14" fill="#009af9" fill-rule="evenodd" fill-opacity="1" stroke="#000000" stroke-opacity="1" stroke-width="3.2"/>
<circle clip-path="url(#clip902)" cx="1452.66" cy="165.463" r="14" fill="#009af9" fill-rule="evenodd" fill-opacity="1" stroke="#000000" stroke-opacity="1" stroke-width="3.2"/>
<circle clip-path="url(#clip902)" cx="2175.39" cy="1432.57" r="14" fill="#009af9" fill-rule="evenodd" fill-opacity="1" stroke="#000000" stroke-opacity="1" stroke-width="3.2"/>
<circle clip-path="url(#clip902)" cx="247.59" cy="475.987" r="14" fill="#009af9" fill-rule="evenodd" fill-opacity="1" stroke="#000000" stroke-opacity="1" stroke-width="3.2"/>
<circle clip-path="url(#clip902)" cx="1707.86" cy="916.456" r="14" fill="#009af9" fill-rule="evenodd" fill-opacity="1" stroke="#000000" stroke-opacity="1" stroke-width="3.2"/>
<circle clip-path="url(#clip902)" cx="1049.85" cy="387.811" r="14" fill="#009af9" fill-rule="evenodd" fill-opacity="1" stroke="#000000" stroke-opacity="1" stroke-width="3.2"/>
<circle clip-path="url(#clip902)" cx="2263.17" cy="383.587" r="14" fill="#009af9" fill-rule="evenodd" fill-opacity="1" stroke="#000000" stroke-opacity="1" stroke-width="3.2"/>
<circle clip-path="url(#clip902)" cx="872.051" cy="910.658" r="14" fill="#009af9" fill-rule="evenodd" fill-opacity="1" stroke="#000000" stroke-opacity="1" stroke-width="3.2"/>
<circle clip-path="url(#clip902)" cx="831.201" cy="1242.2" r="14" fill="#009af9" fill-rule="evenodd" fill-opacity="1" stroke="#000000" stroke-opacity="1" stroke-width="3.2"/>
<circle clip-path="url(#clip902)" cx="277.162" cy="748.472" r="14" fill="#009af9" fill-rule="evenodd" fill-opacity="1" stroke="#000000" stroke-opacity="1" stroke-width="3.2"/>
<circle clip-path="url(#clip902)" cx="769.421" cy="1210.43" r="14" fill="#009af9" fill-rule="evenodd" fill-opacity="1" stroke="#000000" stroke-opacity="1" stroke-width="3.2"/>
<circle clip-path="url(#clip902)" cx="1001.35" cy="112.062" r="14" fill="#009af9" fill-rule="evenodd" fill-opacity="1" stroke="#000000" stroke-opacity="1" stroke-width="3.2"/>
<circle clip-path="url(#clip902)" cx="1245.82" cy="254.19" r="14" fill="#009af9" fill-rule="evenodd" fill-opacity="1" stroke="#000000" stroke-opacity="1" stroke-width="3.2"/>
<circle clip-path="url(#clip902)" cx="806.27" cy="483.957" r="14" fill="#009af9" fill-rule="evenodd" fill-opacity="1" stroke="#000000" stroke-opacity="1" stroke-width="3.2"/>
<circle clip-path="url(#clip902)" cx="1873.16" cy="775.604" r="14" fill="#009af9" fill-rule="evenodd" fill-opacity="1" stroke="#000000" stroke-opacity="1" stroke-width="3.2"/>
<circle clip-path="url(#clip902)" cx="1829.1" cy="582.776" r="14" fill="#009af9" fill-rule="evenodd" fill-opacity="1" stroke="#000000" stroke-opacity="1" stroke-width="3.2"/>
<circle clip-path="url(#clip902)" cx="958.454" cy="1215.28" r="14" fill="#009af9" fill-rule="evenodd" fill-opacity="1" stroke="#000000" stroke-opacity="1" stroke-width="3.2"/>
<circle clip-path="url(#clip902)" cx="645.39" cy="1081.5" r="14" fill="#009af9" fill-rule="evenodd" fill-opacity="1" stroke="#000000" stroke-opacity="1" stroke-width="3.2"/>
<circle clip-path="url(#clip902)" cx="565.526" cy="1226.23" r="14" fill="#009af9" fill-rule="evenodd" fill-opacity="1" stroke="#000000" stroke-opacity="1" stroke-width="3.2"/>
<circle clip-path="url(#clip902)" cx="1355.16" cy="488.797" r="14" fill="#009af9" fill-rule="evenodd" fill-opacity="1" stroke="#000000" stroke-opacity="1" stroke-width="3.2"/>
<circle clip-path="url(#clip902)" cx="402.632" cy="1223.21" r="14" fill="#009af9" fill-rule="evenodd" fill-opacity="1" stroke="#000000" stroke-opacity="1" stroke-width="3.2"/>
<circle clip-path="url(#clip902)" cx="1351.83" cy="388.652" r="14" fill="#009af9" fill-rule="evenodd" fill-opacity="1" stroke="#000000" stroke-opacity="1" stroke-width="3.2"/>
<circle clip-path="url(#clip902)" cx="937.176" cy="356.434" r="14" fill="#009af9" fill-rule="evenodd" fill-opacity="1" stroke="#000000" stroke-opacity="1" stroke-width="3.2"/>
<circle clip-path="url(#clip902)" cx="2291.44" cy="324.082" r="14" fill="#009af9" fill-rule="evenodd" fill-opacity="1" stroke="#000000" stroke-opacity="1" stroke-width="3.2"/>
<circle clip-path="url(#clip902)" cx="1400.37" cy="711.12" r="14" fill="#009af9" fill-rule="evenodd" fill-opacity="1" stroke="#000000" stroke-opacity="1" stroke-width="3.2"/>
<circle clip-path="url(#clip902)" cx="881.742" cy="654.452" r="14" fill="#009af9" fill-rule="evenodd" fill-opacity="1" stroke="#000000" stroke-opacity="1" stroke-width="3.2"/>
<circle clip-path="url(#clip902)" cx="2073.8" cy="880.162" r="14" fill="#009af9" fill-rule="evenodd" fill-opacity="1" stroke="#000000" stroke-opacity="1" stroke-width="3.2"/>
<circle clip-path="url(#clip902)" cx="929.654" cy="706.179" r="14" fill="#009af9" fill-rule="evenodd" fill-opacity="1" stroke="#000000" stroke-opacity="1" stroke-width="3.2"/>
<circle clip-path="url(#clip902)" cx="1999.58" cy="1290.43" r="14" fill="#009af9" fill-rule="evenodd" fill-opacity="1" stroke="#000000" stroke-opacity="1" stroke-width="3.2"/>
<circle clip-path="url(#clip902)" cx="1132.29" cy="1416.71" r="14" fill="#009af9" fill-rule="evenodd" fill-opacity="1" stroke="#000000" stroke-opacity="1" stroke-width="3.2"/>
<circle clip-path="url(#clip902)" cx="1602.29" cy="1398.02" r="14" fill="#009af9" fill-rule="evenodd" fill-opacity="1" stroke="#000000" stroke-opacity="1" stroke-width="3.2"/>
<circle clip-path="url(#clip902)" cx="1964.67" cy="333.428" r="14" fill="#009af9" fill-rule="evenodd" fill-opacity="1" stroke="#000000" stroke-opacity="1" stroke-width="3.2"/>
<circle clip-path="url(#clip902)" cx="1375.65" cy="935.898" r="14" fill="#009af9" fill-rule="evenodd" fill-opacity="1" stroke="#000000" stroke-opacity="1" stroke-width="3.2"/>
<circle clip-path="url(#clip902)" cx="1348.57" cy="1398.92" r="14" fill="#009af9" fill-rule="evenodd" fill-opacity="1" stroke="#000000" stroke-opacity="1" stroke-width="3.2"/>
<circle clip-path="url(#clip902)" cx="2071.53" cy="401.385" r="14" fill="#009af9" fill-rule="evenodd" fill-opacity="1" stroke="#000000" stroke-opacity="1" stroke-width="3.2"/>
<circle clip-path="url(#clip902)" cx="1196.45" cy="117.461" r="14" fill="#009af9" fill-rule="evenodd" fill-opacity="1" stroke="#000000" stroke-opacity="1" stroke-width="3.2"/>
<circle clip-path="url(#clip902)" cx="1303.4" cy="433.905" r="14" fill="#009af9" fill-rule="evenodd" fill-opacity="1" stroke="#000000" stroke-opacity="1" stroke-width="3.2"/>
<circle clip-path="url(#clip902)" cx="1176.28" cy="955.083" r="14" fill="#009af9" fill-rule="evenodd" fill-opacity="1" stroke="#000000" stroke-opacity="1" stroke-width="3.2"/>
<circle clip-path="url(#clip902)" cx="1597.45" cy="381.09" r="14" fill="#009af9" fill-rule="evenodd" fill-opacity="1" stroke="#000000" stroke-opacity="1" stroke-width="3.2"/>
<circle clip-path="url(#clip902)" cx="1593.75" cy="471.234" r="14" fill="#009af9" fill-rule="evenodd" fill-opacity="1" stroke="#000000" stroke-opacity="1" stroke-width="3.2"/>
<circle clip-path="url(#clip902)" cx="247.618" cy="260.037" r="14" fill="#009af9" fill-rule="evenodd" fill-opacity="1" stroke="#000000" stroke-opacity="1" stroke-width="3.2"/>
<circle clip-path="url(#clip902)" cx="448.363" cy="1195.6" r="14" fill="#009af9" fill-rule="evenodd" fill-opacity="1" stroke="#000000" stroke-opacity="1" stroke-width="3.2"/>
<circle clip-path="url(#clip902)" cx="877.424" cy="1445.72" r="14" fill="#009af9" fill-rule="evenodd" fill-opacity="1" stroke="#000000" stroke-opacity="1" stroke-width="3.2"/>
<circle clip-path="url(#clip902)" cx="1438.44" cy="544.129" r="14" fill="#009af9" fill-rule="evenodd" fill-opacity="1" stroke="#000000" stroke-opacity="1" stroke-width="3.2"/>
<circle clip-path="url(#clip902)" cx="1082.98" cy="1177.07" r="14" fill="#009af9" fill-rule="evenodd" fill-opacity="1" stroke="#000000" stroke-opacity="1" stroke-width="3.2"/>
<circle clip-path="url(#clip902)" cx="1407.49" cy="800.596" r="14" fill="#009af9" fill-rule="evenodd" fill-opacity="1" stroke="#000000" stroke-opacity="1" stroke-width="3.2"/>
<circle clip-path="url(#clip902)" cx="290.883" cy="605.61" r="14" fill="#009af9" fill-rule="evenodd" fill-opacity="1" stroke="#000000" stroke-opacity="1" stroke-width="3.2"/>
<circle clip-path="url(#clip902)" cx="686.67" cy="924.421" r="14" fill="#009af9" fill-rule="evenodd" fill-opacity="1" stroke="#000000" stroke-opacity="1" stroke-width="3.2"/>
<circle clip-path="url(#clip902)" cx="2087.31" cy="1191.32" r="14" fill="#009af9" fill-rule="evenodd" fill-opacity="1" stroke="#000000" stroke-opacity="1" stroke-width="3.2"/>
<circle clip-path="url(#clip902)" cx="1015.24" cy="962.203" r="14" fill="#009af9" fill-rule="evenodd" fill-opacity="1" stroke="#000000" stroke-opacity="1" stroke-width="3.2"/>
<circle clip-path="url(#clip902)" cx="1191.96" cy="1297.39" r="14" fill="#009af9" fill-rule="evenodd" fill-opacity="1" stroke="#000000" stroke-opacity="1" stroke-width="3.2"/>
<circle clip-path="url(#clip902)" cx="1207.72" cy="614.551" r="14" fill="#009af9" fill-rule="evenodd" fill-opacity="1" stroke="#000000" stroke-opacity="1" stroke-width="3.2"/>
<circle clip-path="url(#clip902)" cx="2211.46" cy="151.383" r="14" fill="#009af9" fill-rule="evenodd" fill-opacity="1" stroke="#000000" stroke-opacity="1" stroke-width="3.2"/>
<circle clip-path="url(#clip902)" cx="953.394" cy="486.301" r="14" fill="#009af9" fill-rule="evenodd" fill-opacity="1" stroke="#000000" stroke-opacity="1" stroke-width="3.2"/>
<circle clip-path="url(#clip902)" cx="980.063" cy="846.256" r="14" fill="#009af9" fill-rule="evenodd" fill-opacity="1" stroke="#000000" stroke-opacity="1" stroke-width="3.2"/>
<circle clip-path="url(#clip902)" cx="541.181" cy="830.54" r="14" fill="#009af9" fill-rule="evenodd" fill-opacity="1" stroke="#000000" stroke-opacity="1" stroke-width="3.2"/>
<circle clip-path="url(#clip902)" cx="863.836" cy="522.296" r="14" fill="#009af9" fill-rule="evenodd" fill-opacity="1" stroke="#000000" stroke-opacity="1" stroke-width="3.2"/>
<circle clip-path="url(#clip902)" cx="1229.8" cy="1037.78" r="14" fill="#009af9" fill-rule="evenodd" fill-opacity="1" stroke="#000000" stroke-opacity="1" stroke-width="3.2"/>
<circle clip-path="url(#clip902)" cx="1101.89" cy="838.277" r="14" fill="#009af9" fill-rule="evenodd" fill-opacity="1" stroke="#000000" stroke-opacity="1" stroke-width="3.2"/>
<circle clip-path="url(#clip902)" cx="1002.16" cy="979.616" r="14" fill="#009af9" fill-rule="evenodd" fill-opacity="1" stroke="#000000" stroke-opacity="1" stroke-width="3.2"/>
<circle clip-path="url(#clip902)" cx="613.936" cy="1061.04" r="14" fill="#009af9" fill-rule="evenodd" fill-opacity="1" stroke="#000000" stroke-opacity="1" stroke-width="3.2"/>
<circle clip-path="url(#clip902)" cx="2085.29" cy="298.444" r="14" fill="#009af9" fill-rule="evenodd" fill-opacity="1" stroke="#000000" stroke-opacity="1" stroke-width="3.2"/>
<circle clip-path="url(#clip902)" cx="1217.75" cy="153.793" r="14" fill="#009af9" fill-rule="evenodd" fill-opacity="1" stroke="#000000" stroke-opacity="1" stroke-width="3.2"/>
<circle clip-path="url(#clip902)" cx="361.671" cy="1287.7" r="14" fill="#009af9" fill-rule="evenodd" fill-opacity="1" stroke="#000000" stroke-opacity="1" stroke-width="3.2"/>
<circle clip-path="url(#clip902)" cx="409.831" cy="128.251" r="14" fill="#009af9" fill-rule="evenodd" fill-opacity="1" stroke="#000000" stroke-opacity="1" stroke-width="3.2"/>
<circle clip-path="url(#clip902)" cx="1221.11" cy="304.761" r="14" fill="#009af9" fill-rule="evenodd" fill-opacity="1" stroke="#000000" stroke-opacity="1" stroke-width="3.2"/>
<circle clip-path="url(#clip902)" cx="436.112" cy="1397.5" r="14" fill="#009af9" fill-rule="evenodd" fill-opacity="1" stroke="#000000" stroke-opacity="1" stroke-width="3.2"/>
<circle clip-path="url(#clip902)" cx="2106.97" cy="1245.5" r="14" fill="#009af9" fill-rule="evenodd" fill-opacity="1" stroke="#000000" stroke-opacity="1" stroke-width="3.2"/>
<circle clip-path="url(#clip902)" cx="1473.5" cy="363.858" r="14" fill="#009af9" fill-rule="evenodd" fill-opacity="1" stroke="#000000" stroke-opacity="1" stroke-width="3.2"/>
<circle clip-path="url(#clip902)" cx="257.857" cy="1134.87" r="14" fill="#009af9" fill-rule="evenodd" fill-opacity="1" stroke="#000000" stroke-opacity="1" stroke-width="3.2"/>
<circle clip-path="url(#clip902)" cx="723.93" cy="270.416" r="14" fill="#009af9" fill-rule="evenodd" fill-opacity="1" stroke="#000000" stroke-opacity="1" stroke-width="3.2"/>
<circle clip-path="url(#clip902)" cx="673.208" cy="1127.97" r="14" fill="#009af9" fill-rule="evenodd" fill-opacity="1" stroke="#000000" stroke-opacity="1" stroke-width="3.2"/>
<circle clip-path="url(#clip902)" cx="654.049" cy="764.211" r="14" fill="#009af9" fill-rule="evenodd" fill-opacity="1" stroke="#000000" stroke-opacity="1" stroke-width="3.2"/>
<circle clip-path="url(#clip902)" cx="1849.43" cy="1278.24" r="14" fill="#009af9" fill-rule="evenodd" fill-opacity="1" stroke="#000000" stroke-opacity="1" stroke-width="3.2"/>
<circle clip-path="url(#clip902)" cx="2257.1" cy="1436.85" r="14" fill="#009af9" fill-rule="evenodd" fill-opacity="1" stroke="#000000" stroke-opacity="1" stroke-width="3.2"/>
<circle clip-path="url(#clip902)" cx="1147.81" cy="111.327" r="14" fill="#009af9" fill-rule="evenodd" fill-opacity="1" stroke="#000000" stroke-opacity="1" stroke-width="3.2"/>
<circle clip-path="url(#clip902)" cx="1159.38" cy="664.87" r="14" fill="#009af9" fill-rule="evenodd" fill-opacity="1" stroke="#000000" stroke-opacity="1" stroke-width="3.2"/>
<circle clip-path="url(#clip902)" cx="1679.07" cy="278.248" r="14" fill="#009af9" fill-rule="evenodd" fill-opacity="1" stroke="#000000" stroke-opacity="1" stroke-width="3.2"/>
<circle clip-path="url(#clip902)" cx="1818.1" cy="937.506" r="14" fill="#009af9" fill-rule="evenodd" fill-opacity="1" stroke="#000000" stroke-opacity="1" stroke-width="3.2"/>
<circle clip-path="url(#clip902)" cx="1120.17" cy="267.576" r="14" fill="#009af9" fill-rule="evenodd" fill-opacity="1" stroke="#000000" stroke-opacity="1" stroke-width="3.2"/>
<circle clip-path="url(#clip902)" cx="769.406" cy="605.574" r="14" fill="#009af9" fill-rule="evenodd" fill-opacity="1" stroke="#000000" stroke-opacity="1" stroke-width="3.2"/>
<circle clip-path="url(#clip902)" cx="567.691" cy="1180.68" r="14" fill="#009af9" fill-rule="evenodd" fill-opacity="1" stroke="#000000" stroke-opacity="1" stroke-width="3.2"/>
<circle clip-path="url(#clip902)" cx="947.761" cy="87.9763" r="14" fill="#009af9" fill-rule="evenodd" fill-opacity="1" stroke="#000000" stroke-opacity="1" stroke-width="3.2"/>
<circle clip-path="url(#clip902)" cx="1111.97" cy="1276.33" r="14" fill="#009af9" fill-rule="evenodd" fill-opacity="1" stroke="#000000" stroke-opacity="1" stroke-width="3.2"/>
<circle clip-path="url(#clip902)" cx="1661.47" cy="422.204" r="14" fill="#009af9" fill-rule="evenodd" fill-opacity="1" stroke="#000000" stroke-opacity="1" stroke-width="3.2"/>
<circle clip-path="url(#clip902)" cx="1114.76" cy="459.43" r="14" fill="#009af9" fill-rule="evenodd" fill-opacity="1" stroke="#000000" stroke-opacity="1" stroke-width="3.2"/>
<circle clip-path="url(#clip902)" cx="642.88" cy="1058.52" r="14" fill="#009af9" fill-rule="evenodd" fill-opacity="1" stroke="#000000" stroke-opacity="1" stroke-width="3.2"/>
<circle clip-path="url(#clip902)" cx="688.776" cy="1178.72" r="14" fill="#009af9" fill-rule="evenodd" fill-opacity="1" stroke="#000000" stroke-opacity="1" stroke-width="3.2"/>
<circle clip-path="url(#clip902)" cx="1653.7" cy="219.912" r="14" fill="#009af9" fill-rule="evenodd" fill-opacity="1" stroke="#000000" stroke-opacity="1" stroke-width="3.2"/>
<circle clip-path="url(#clip902)" cx="2230.58" cy="909.639" r="14" fill="#009af9" fill-rule="evenodd" fill-opacity="1" stroke="#000000" stroke-opacity="1" stroke-width="3.2"/>
<circle clip-path="url(#clip902)" cx="807.862" cy="459.159" r="14" fill="#009af9" fill-rule="evenodd" fill-opacity="1" stroke="#000000" stroke-opacity="1" stroke-width="3.2"/>
<circle clip-path="url(#clip902)" cx="752.051" cy="826.266" r="14" fill="#009af9" fill-rule="evenodd" fill-opacity="1" stroke="#000000" stroke-opacity="1" stroke-width="3.2"/>
<circle clip-path="url(#clip902)" cx="1543.23" cy="893.821" r="14" fill="#009af9" fill-rule="evenodd" fill-opacity="1" stroke="#000000" stroke-opacity="1" stroke-width="3.2"/>
<circle clip-path="url(#clip902)" cx="1141.64" cy="605.099" r="14" fill="#009af9" fill-rule="evenodd" fill-opacity="1" stroke="#000000" stroke-opacity="1" stroke-width="3.2"/>
<circle clip-path="url(#clip902)" cx="908.986" cy="247.652" r="14" fill="#009af9" fill-rule="evenodd" fill-opacity="1" stroke="#000000" stroke-opacity="1" stroke-width="3.2"/>
<circle clip-path="url(#clip902)" cx="1185.12" cy="438.45" r="14" fill="#009af9" fill-rule="evenodd" fill-opacity="1" stroke="#000000" stroke-opacity="1" stroke-width="3.2"/>
<circle clip-path="url(#clip902)" cx="2019.93" cy="457.097" r="14" fill="#009af9" fill-rule="evenodd" fill-opacity="1" stroke="#000000" stroke-opacity="1" stroke-width="3.2"/>
<circle clip-path="url(#clip902)" cx="1350.06" cy="1390.74" r="14" fill="#009af9" fill-rule="evenodd" fill-opacity="1" stroke="#000000" stroke-opacity="1" stroke-width="3.2"/>
<path clip-path="url(#clip900)" d="
M1987.39 198.898 L2280.54 198.898 L2280.54 95.2176 L1987.39 95.2176  Z
  " fill="#ffffff" fill-rule="evenodd" fill-opacity="1"/>
<polyline clip-path="url(#clip900)" style="stroke:#000000; stroke-linecap:butt; stroke-linejoin:round; stroke-width:4; stroke-opacity:1; fill:none" points="
  1987.39,198.898 2280.54,198.898 2280.54,95.2176 1987.39,95.2176 1987.39,198.898 
  "/>
<circle clip-path="url(#clip900)" cx="2083.68" cy="147.058" r="23" fill="#009af9" fill-rule="evenodd" fill-opacity="1" stroke="#000000" stroke-opacity="1" stroke-width="5.12"/>
<path clip-path="url(#clip900)" d="M2193.81 166.745 Q2192 171.375 2190.29 172.787 Q2188.58 174.199 2185.71 174.199 L2182.3 174.199 L2182.3 170.634 L2184.8 170.634 Q2186.56 170.634 2187.53 169.8 Q2188.51 168.967 2189.69 165.865 L2190.45 163.921 L2179.97 138.412 L2184.48 138.412 L2192.58 158.689 L2200.68 138.412 L2205.2 138.412 L2193.81 166.745 Z" fill="#000000" fill-rule="evenodd" fill-opacity="1" /><path clip-path="url(#clip900)" d="M2212.49 160.402 L2220.13 160.402 L2220.13 134.037 L2211.82 135.703 L2211.82 131.444 L2220.08 129.778 L2224.76 129.778 L2224.76 160.402 L2232.4 160.402 L2232.4 164.338 L2212.49 164.338 L2212.49 160.402 Z" fill="#000000" fill-rule="evenodd" fill-opacity="1" /></svg>
